<?xml version="1.0" encoding="UTF-8"?>
<svg width="23px" height="32px" viewBox="0 0 23 32" version="1.1" xmlns="http://www.w3.org/2000/svg" xmlns:xlink="http://www.w3.org/1999/xlink">
    <title>noun-security-5007642-0000DD</title>
    <g id="Page-1" stroke="none" stroke-width="1" fill="none" fill-rule="evenodd">
        <g id="Super-Admin-Settings----Existing-Experts-Option" transform="translate(-458.000000, -393.000000)" fill="#0000DD" fill-rule="nonzero">
            <g id="Group" transform="translate(435.000000, 322.000000)">
                <g id="vuesax/linear/notification" transform="translate(22.000000, 0.000000)">
                    <g id="noun-security-5007642-0000DD" transform="translate(1.000000, 71.000000)">
                        <path d="M22.555441,1.44469903 C22.5059977,1.44469903 20.2850812,0.111182312 20.2356512,0.111182312 C19.9887855,-0.0370607705 19.6433796,-0.0370607705 19.2978138,0.111182312 C15.9908899,1.54344183 13.3258008,1.93854638 11.0554854,1.19766426 C10.4137838,1.00012087 9.67353307,1.54345072 9.32796727,2.13607643 C6.56424025,6.0869441 3.89910675,8.85254258 1.23397324,10.5812083 C0.542974875,11.0257731 0,12.0134678 0,12.8036769 L0,21.0017295 C0,25.1008447 1.43138232,28.2616811 3.89919557,29.6939406 C4.54089719,30.0890273 6.26828209,31.0767398 6.16955534,31.0274573 C7.89707348,32.0151964 10.1674777,32.1139392 12.1415684,31.9164092 C12.5364132,31.8669356 12.8819967,31.6200919 13.1781326,31.3237746 C17.1265805,27.3725514 19.6932981,23.570109 21.3711642,19.3226574 C22.4569807,16.5570589 23,13.6927177 23,11.0255065 L23,2.33329541 C22.9505567,1.93838195 22.8025776,1.59259104 22.5557075,1.44452127 L22.555441,1.44469903 Z M1.52970936,11.0256842 C4.24436167,9.24778044 6.90971723,6.43249948 9.722741,2.38324451 C9.96960671,2.03745805 10.5124217,1.49429262 10.9072843,1.64236239 C13.2763708,2.38324451 16.089661,2.03744916 19.4955782,0.555880451 C19.6930006,0.457106537 19.890423,0.457106537 19.989123,0.506406839 L21.5684844,1.39535873 C19.0019889,2.53130095 16.0405863,3.32151004 13.3754528,2.48184067 C12.7337512,2.28429729 12.0427528,2.82762714 11.6479347,3.42025285 C9.67371072,6.28463857 7.7487391,8.50715162 5.87310865,10.186046 C4.88597447,11.0749979 4.24427285,11.4701024 3.55331889,11.9639497 C2.96104726,12.3590365 2.51675472,13.099892 2.41807239,13.7418535 L0.591827513,12.7046541 C0.542557407,12.062737 0.98684551,11.3713152 1.52984259,11.0257153 L1.52970936,11.0256842 Z M0.542441937,21.0510565 L0.542441937,13.248064 L2.31925682,14.2852634 L2.31925682,22.3846621 C2.31925682,24.8046607 2.86227611,27.5208878 4.34291077,29.4468614 C4.29364066,29.3480875 0.542441937,27.8170274 0.542441937,21.0510565 L0.542441937,21.0510565 Z M20.8775749,19.1744099 C19.2487391,23.3228521 16.7316735,27.0765007 12.8324335,31.0768731 C12.6350111,31.2744165 12.388141,31.4719599 12.0920052,31.521438 C10.4631694,31.7189813 9.03196469,31.6202119 7.79794703,31.3238946 C4.14563493,30.3361554 2.76346054,26.3854211 2.71416379,22.5823566 L2.71416379,22.4341135 L2.71416379,14.2360608 C2.71416379,13.593966 3.15845633,12.8038013 3.75072796,12.4086968 C7.00839956,10.2355551 9.82177862,6.82808396 11.9930564,3.71648571 C12.2399221,3.37069924 12.7827371,2.87681634 13.1775996,2.97560359 C15.9416819,3.86455548 19.1003159,3.0250772 21.7658935,1.83979468 C22.2101861,1.6422513 22.5063219,1.83979468 22.5063219,2.38314675 L22.5063219,11.0753578 C22.5063219,13.6432485 21.9633026,16.4582184 20.8774861,19.1747565 L20.8775749,19.1744099 Z" id="Shape"></path>
                        <path d="M13.0492364,26.9996022 C16.7956847,23.118937 19.8026107,18.3539981 20,13 L13,17.027941 C13,19.4841589 13.0493828,24.3470902 13.0493828,27 L13.0492364,26.9996022 Z" id="Path"></path>
                        <path d="M13.0002951,6.94584889 C13.0002951,8.23995863 13.0493299,16.1042674 13.0493299,17 L20,12.918639 L20,6 C17.1608444,7.2939306 14.8600013,7.64241538 13,6.94558017 L13.0002951,6.94584889 Z" id="Path"></path>
                        <path d="M5,21.871458 C5.15008613,24.9686784 6.4500662,27.0978677 8.60001543,27.7271096 C9.55009448,28.0174754 10.7000244,28.065951 12,27.9206854 C12,26.372097 11.9499113,18.6771427 11.9499113,18 C11.3000135,18.3388414 5.94988559,21.3392935 5.00012148,21.8715146 L5,21.871458 Z" id="Path"></path>
                        <path d="M12,7 C9.70000129,10.3619317 7.50003342,12.6699666 5.25008162,13.9246917 C5.15008227,13.9749574 5.09999936,14.0250471 5,14.0753083 L5,21 L12,16.9355758 L12,7.00026639 L12,7 Z" id="Path"></path>
                    </g>
                </g>
            </g>
        </g>
    </g>
</svg>