<?xml version="1.0" encoding="UTF-8"?>
<svg width="27px" height="32px" viewBox="0 0 27 32" version="1.1" xmlns="http://www.w3.org/2000/svg" xmlns:xlink="http://www.w3.org/1999/xlink">
    <title>noun-financial-management-5007636-0000DD</title>
    <g id="Page-1" stroke="none" stroke-width="1" fill="none" fill-rule="evenodd">
        <g id="Super-Admin-Settings----Existing-Experts-Option" transform="translate(-457.000000, -322.000000)" fill="#0000DD" fill-rule="nonzero">
            <g id="Group" transform="translate(435.000000, 322.000000)">
                <g id="noun-financial-management-5007636-0000DD" transform="translate(22.000000, 0.000000)">
                    <path d="M26.9507482,8.50282442 C26.9507482,8.40442823 26.9018391,8.35514825 26.8041966,8.30603648 L23.7282778,6.53493173 C23.6306309,6.38725556 23.5329884,6.28885937 23.3864368,6.14135585 L24.7047379,3.82902118 C24.7536471,3.68134501 24.7047379,3.53383705 24.6070911,3.48455707 C23.2887899,2.69741416 22.8982375,2.50059523 18.6503979,0.0407570338 C18.5038463,-0.05763915 18.3574616,0.0407570338 18.3085569,0.139153218 L16.9902558,2.40221675 C16.7460573,2.35293233 16.5507635,2.30382057 16.3067232,2.30382057 L13.3773604,0.581854148 C13.2797135,0.532569732 13.2308088,0.532569732 13.1331619,0.581854148 L9.8619669,2.5006395 C9.81305779,2.54992391 9.71541529,2.64831567 9.71541529,2.69742744 L9.71541529,4.81298745 C8.29949804,5.94458561 7.07898879,7.27282564 6.05362395,8.74874626 C6.00471484,8.69946185 4.78421877,8.01069741 4.83298291,8.05996855 C4.73533602,8.01068413 4.54004663,8.01068413 4.49114191,8.15836473 C3.75871336,9.48678183 2.09875576,12.2909425 2.14765169,12.192533 C2.09874258,12.3402092 2.14765169,12.4877171 2.24529858,12.5369971 L3.46593962,13.2257748 C2.73421397,15.0461507 2.24582576,16.7681614 2.00178542,18.3919397 L0.146551609,19.4742667 C0.0489047187,19.5235512 0,19.6219429 0,19.6710547 L0,23.5084483 C0,23.6068445 0.0489091119,23.6561245 0.146551609,23.7052362 L3.22247039,25.5256121 C3.32011728,25.6732883 3.41775978,25.8207963 3.56431139,25.919188 L2.24583455,28.1822515 C2.19692543,28.2806477 2.19692543,28.4283239 2.34348144,28.5267157 C2.39239055,28.5760001 8.34893873,32.0197868 8.30017459,31.9705157 C8.39782148,32.0198001 8.54437309,32.0198001 8.64201558,31.8721195 L9.9603167,29.609056 C10.2045152,29.6583404 10.399809,29.7074522 10.6438493,29.7074522 L13.5732121,31.4294186 C13.670859,31.478703 13.7197637,31.478703 13.8174106,31.4294186 L17.0886056,29.5106332 C17.1862525,29.4613488 17.2351572,29.3629571 17.2351572,29.3138453 L17.2351572,27.1982853 C18.6021785,26.0666871 19.8715837,24.7384471 20.8969485,23.2625265 L22.1175896,23.9513042 C22.2152365,24.0005886 22.3617881,24.0005886 22.4594306,23.852908 L24.8029208,19.7694686 C24.8518299,19.7201842 24.8518299,19.6217924 24.8518299,19.5726806 C24.8518299,19.5233962 24.8029208,19.4742845 24.7052783,19.4250045 L23.4846373,18.7853651 C24.2170658,17.1617639 24.7540424,15.3906591 24.9982146,13.6196429 L26.8534484,12.5373159 C26.9023575,12.4880314 27,12.3896397 27,12.3405279 L26.9507482,8.50282442 Z M26.2183197,8.50282442 L24.9000185,9.24087327 C24.7534669,8.55209555 24.5581776,7.91245617 24.2652501,7.37140332 L26.2183197,8.50282442 Z M18.6506527,0.631395323 C18.6995618,0.680679739 22.0195078,2.59927473 21.8241876,2.50086527 L20.6524425,4.51801581 L17.4789076,2.64854587 L18.6506527,0.631395323 Z M19.5781818,4.41947354 C18.7480931,4.41947354 18.0646044,4.51786972 17.1370754,4.81304942 L17.1370754,2.94357948 L19.5781818,4.41947354 Z M13.2801396,1.12335411 C13.3290487,1.17263852 16.4536746,2.99282405 16.4047786,2.94372999 C16.3558695,2.99301441 14.3053287,4.17373763 13.6217961,4.56733121 L10.4973329,2.74677826 L13.2801396,1.12335411 Z M13.2801396,4.96074773 L13.3290487,5.01003214 L13.3290487,6.68272743 L10.2044098,4.86235154 L10.2044098,3.18965626 C10.3020567,3.18965626 13.475429,5.05912621 13.2801528,4.96076101 L13.2801396,4.96074773 Z M10.0091204,5.25593185 L13.1337594,7.1254018 C12.9872078,7.27307797 11.2785256,8.55218409 9.66728816,10.9136571 C8.30026684,10.1265142 7.9096705,9.88042412 6.49375324,9.04418715 C7.51911808,7.61740485 8.69086319,6.33825889 10.0091643,5.25593185 L10.0091204,5.25593185 Z M2.73447756,12.2419857 L4.83392744,8.65050502 L8.00746236,10.519975 L5.90801248,14.1114556 C5.90784089,14.1114556 2.6855377,12.2419857 2.73447756,12.2419857 Z M3.90622267,13.5211316 C4.10151206,13.6688078 4.29680145,13.767204 4.49209523,13.8655957 C4.88267401,14.1116681 5.71273628,14.5543734 7.07975759,15.3907875 C6.34732904,17.0634828 5.90801248,18.6378129 5.61507621,20.261237 L2.49043722,18.4408611 C2.73446438,16.8663982 3.17379412,15.1936587 3.90622267,13.5208306 L3.90622267,13.5211316 Z M2.24608935,18.8342688 L5.37072834,20.6546447 L3.90604695,21.540197 L0.781407961,19.7198212 L2.24608935,18.8342688 Z M0.488471683,23.4098883 L0.488471683,20.162863 L3.61311067,21.9832388 L3.61311067,25.2302642 C1.75787686,24.098666 2.44136556,24.5414865 0.488471683,23.4098883 Z M2.78319777,28.2311995 L3.95494288,26.2633201 L7.1284778,28.1327901 L5.95673269,30.1006695 L2.78319777,28.2311995 Z M4.10149888,25.7713613 L5.66379641,24.885809 C5.8590858,25.7222673 6.00563741,26.3617296 6.44494517,27.0997784 C6.44494517,27.1490628 6.49385429,27.1490628 6.49385429,27.1981746 L4.10149888,25.7713613 Z M13.4268714,30.7896685 L11.5716376,29.7073415 C12.1575101,29.6580571 12.7433827,29.5105535 13.4268714,29.3137656 L13.4268714,30.7896862 L13.4268714,30.7896685 Z M24.6074777,13.2751744 C24.5585685,13.3244588 24.5098308,13.3735705 24.460926,13.4719623 C24.2167275,15.243067 23.6797773,17.112537 22.8986285,18.7850995 C22.8497194,18.8834957 22.8986285,19.0311718 22.9962754,19.0802836 L24.1680205,19.719923 L22.1176423,23.4098131 L20.9458972,22.7210354 C20.8482503,22.6717509 20.7016987,22.6717509 20.6040562,22.7703198 C19.5299712,24.2955115 18.21167,25.722161 16.7958846,26.8537592 C16.7469755,26.9030436 16.6982377,26.9521554 16.6982377,27.0505471 L16.6982377,29.1661071 L13.9152552,30.7895313 L13.9152552,28.9691554 C13.9152552,28.8214792 13.7687036,28.6739713 13.5734142,28.723083 C12.4504332,29.1659478 11.0346478,29.4118608 9.86290265,29.0675472 C9.76525576,29.0182627 9.66761326,29.0675472 9.56996637,29.1659433 L8.30056119,31.3799128 L6.39638752,30.2483146 C6.44529663,30.1990302 7.32409228,28.6247134 7.6657927,28.0836606 C7.76343959,27.9852644 7.6657927,27.8375882 7.61688359,27.7884765 C6.73807475,26.8536529 6.24986227,25.6729164 6.05458606,24.3937705 C6.05458606,24.3444861 6.00567695,24.2953743 5.95693917,24.2460943 C5.95693917,24.2460943 5.90803006,24.2460943 5.90803006,24.1968099 C5.85912094,24.1475255 5.76147845,24.1475255 5.66383156,24.1968099 C5.61492244,24.2460943 3.95497803,25.1807717 4.05259416,25.1316334 L4.05259416,21.884608 C5.37089528,21.0974651 5.90782797,20.802281 5.95676783,20.7530099 C6.00567695,20.7037254 6.00567695,20.6546137 6.00567695,20.6053337 C6.24987545,18.8833673 6.7381055,17.1122625 7.56797447,15.2921965 C7.61688359,15.1938003 7.56797447,15.0461242 7.47032758,14.9970124 C7.42141847,14.947728 6.2009224,14.2589635 6.29858247,14.3082347 L8.39803235,10.66766 C8.44694146,10.7169444 9.27684118,11.1596188 9.56977746,11.3564377 C9.66742435,11.4057221 9.81397596,11.4057221 9.91161846,11.3071533 C10.0581701,10.9626892 11.6692361,8.89640915 13.6710259,7.22371387 C13.719935,7.17442945 13.8175775,7.0760377 13.8175775,7.02692593 L13.8175775,4.91136592 C13.8664867,4.86208151 16.6492803,3.23867064 16.60056,3.2877647 L16.60056,5.10814058 C16.60056,5.30492852 16.7958494,5.40332471 16.942401,5.35421294 C19.2858913,4.46866056 20.5552525,5.00974882 20.6529126,5.00974882 C20.7505595,5.05903324 20.8971111,5.00974882 20.9458489,4.91135264 C20.994758,4.81295646 22.215254,2.74669857 22.215254,2.64828911 L24.1194277,3.73061614 L22.8500225,5.94458561 C22.8011134,5.99387003 22.8011134,6.09226179 22.8500225,6.19065797 C22.8500225,6.19065797 22.8500225,6.23994239 22.8989316,6.23994239 C23.7777405,7.1747659 24.2172328,8.40459646 24.4612292,9.63464836 C24.4612292,9.78232453 24.6565186,9.88072072 24.851808,9.78232453 L26.4630453,8.84750102 L26.4630453,12.0945264 L24.6074777,13.2751744 Z" id="Shape"></path>
                    <path d="" id="Path"></path>
                    <path d="M19.5320367,10.3280448 C19.4815901,10.4285225 19.3808782,10.4285225 19.3306083,10.4285225 C19.2801617,10.4285225 19.2298919,10.4285225 19.1794498,10.3781955 C19.0787333,10.3278685 19.0282913,10.1772445 19.0787333,10.0264443 L19.9851679,8.51930055 C18.4744437,7.56470086 16.2082667,7.8661296 13.5897385,9.92595295 C12.1797443,11.0814901 10.920732,12.5886338 9.96400038,14.2967601 L11.2230127,15.000109 C11.3237292,15.050436 11.3741713,15.2010599 11.3237292,15.3518602 C11.2732826,15.452338 11.1725707,15.5026605 11.1223008,15.5026605 C11.0718542,15.5026605 11.0215844,15.5026605 11.0215844,15.4523334 L9.762572,14.7489846 C8.65472268,16.808808 8,19.0694332 8,21.1794344 C8,23.3898817 8.75545273,24.8468927 9.91355379,25.5502416 L11.0718361,23.5908643 C11.1222827,23.4903866 11.2732645,23.440064 11.424423,23.4903866 C11.5251395,23.5407136 11.5755815,23.6913375 11.5251395,23.8421378 L10.4172901,25.7511564 C12.3308439,26.5048186 15.0500569,25.5502054 17.6691289,22.8373603 C18.3741486,22.083698 19.079123,21.1794118 19.6834127,20.2249929 L18.0720038,19.3207066 C17.9712873,19.2703796 17.9208452,19.1197557 17.9712873,18.9689554 C18.0217339,18.8684776 18.1727157,18.8181551 18.3238742,18.8684776 L19.9352832,19.7727639 C21.1942955,17.6124492 22,15.1003471 22,12.8396315 C22,11.0310591 21.4459621,9.62440668 20.5395728,8.82061176 L19.5320367,10.3280448 Z M16.9134632,18.4166238 C16.7623047,18.7683751 16.5106064,19.1199726 16.2587405,19.4717149 C15.9565956,19.7731436 15.6544508,20.0745723 15.2515759,20.3258684 L15.2515759,20.9790394 C15.2515759,21.0795171 15.2515759,21.1799904 15.2011293,21.2303174 C15.1506827,21.2806444 15.1004129,21.3811177 14.9997009,21.4312684 C14.8487191,21.4812428 14.7984493,21.4812428 14.7480027,21.4812428 C14.6975561,21.4309158 14.6472862,21.3807651 14.6472862,21.2802918 L14.6472862,20.6271209 C14.0429965,20.9285496 13.4890039,21.0793544 12.985399,21.1294871 C12.9349524,21.1294871 12.8342404,21.1294871 12.8342404,21.07916 C12.7837939,21.028833 12.7837939,20.9786823 12.7837939,20.878209 C12.7837939,20.7777358 12.8342404,20.626931 12.8845103,20.5264578 C12.9349569,20.42598 13.0356688,20.3255068 13.1363853,20.2751798 C13.1868319,20.2248527 13.2371018,20.2248527 13.2875438,20.2248527 C13.7408517,20.1745257 14.1939783,20.0740525 14.697538,19.8229508 L14.697538,17.6626361 C14.3449511,17.7631138 13.9925182,17.8134364 13.7406704,17.8134364 C13.4887955,17.8134364 13.2371108,17.7631093 13.0859478,17.6124854 C12.9347893,17.4616851 12.8340728,17.2105834 12.8340728,16.8086905 C12.8340728,16.4569392 12.8845194,16.1053416 13.0355012,15.7535994 C13.1866597,15.4018482 13.3880881,15.0502506 13.6902239,14.6985084 C13.9420988,14.3467572 14.2945135,14.0453375 14.6973884,13.7942222 L14.6973884,13.1410512 C14.6973884,13.0405735 14.747835,12.9401003 14.7981049,12.8897732 C14.8485515,12.7892955 14.8988214,12.738973 14.9995333,12.6888222 C15.1002497,12.6384952 15.1506918,12.6384952 15.2009617,12.6888222 C15.2514083,12.7391493 15.3016781,12.7893 15.3016781,12.8897732 L15.3016781,13.5429442 C15.8557161,13.2415154 16.3088427,13.0907107 16.7621053,13.040578 C16.9132638,12.990251 17.0139803,13.090905 17.0139803,13.291856 C17.0139803,13.3923338 16.9635337,13.492807 16.9132638,13.6436073 C16.8628172,13.744085 16.7621053,13.8445583 16.6613888,13.8948853 C16.6109422,13.8948853 16.5606724,13.9452123 16.5102303,13.9452123 C16.1576434,13.9955393 15.7547776,14.1461633 15.3016509,14.3974458 L15.3016509,16.6078932 C15.7045077,16.5074154 16.0066707,16.4069422 16.3088155,16.4069422 C16.5606905,16.4069422 16.8123751,16.4572692 16.9635382,16.6078932 C17.1146967,16.7586934 17.2154132,17.0601267 17.2154132,17.4620467 C17.1148734,17.663174 17.0644314,18.0147716 16.913445,18.4166464 L16.9134632,18.4166238 Z" id="Shape"></path>
                    <path d="M14.2856947,15.7543544 C14.095233,16.0372537 14,16.2731021 14,16.5560015 C14,16.7918329 14.095233,16.9804353 14.2381618,16.9804353 C14.4286235,17.0276686 14.6667895,16.9804353 15,16.933202 L15,15 C14.7143053,15.235666 14.4762978,15.4714847 14.2856776,15.7543841 L14.2856947,15.7543544 Z" id="Path"></path>
                    <path d="M16.7639575,17 C16.5842263,17 16.3594785,17 16,17.0952401 L16,19 C16.6740777,18.5238207 16.9885153,17.9999079 16.9885153,17.3809563 C17.0335279,17.1904803 16.9436603,17.0477079 16.7639292,17 L16.7639575,17 Z" id="Path"></path>
                </g>
            </g>
        </g>
    </g>
</svg>