<?xml version="1.0" encoding="UTF-8"?>
<svg width="20px" height="20px" viewBox="0 0 20 20" version="1.1" xmlns="http://www.w3.org/2000/svg" xmlns:xlink="http://www.w3.org/1999/xlink">
    <title>location</title>
    <g id="Page-1" stroke="none" stroke-width="1" fill="none" fill-rule="evenodd">
        <g id="Super-Admin-Settings----Existing-Experts-Option" transform="translate(-888.000000, -411.000000)">
            <g id="location" transform="translate(888.000000, 411.000000)">
                <path d="M7,8.99611911 C7,7.33505823 8.34883707,6 10,6 C11.6511629,6 13,7.34282038 13,9.00388126 C13,10.6649421 11.6511629,12 10,12 C8.34883707,12 7,10.65718 7,8.99611911 Z M8.16279073,9.00388126 C8.16279073,10.0206988 8.98449614,10.8434672 10,10.8434672 C11.0155039,10.8434672 11.8372093,10.0206988 11.8372093,9.00388126 C11.8372093,7.98706371 11.0077519,7.16429495 10,7.16429495 C8.99224807,7.16429495 8.16279073,7.98706371 8.16279073,9.00388126 Z" id="Vector" fill="#CBC6B6"></path>
                <path d="M6.47487555,17.6025104 C3.95881168,15.2259415 1.17834833,11.4351462 2.22741903,6.92468607 C3.17414136,2.83263601 6.81603724,1 9.99736542,1 C9.99736555,1 10.0002086,1 10.0058946,1 C13.1872228,1 16.8291183,2.83263601 17.7758406,6.93305446 C18.8163823,11.4435145 16.035918,15.2259415 13.5198541,17.6025104 C12.5304866,18.5313807 11.2596619,19 9.99736542,19 C8.73506898,19 7.464243,18.5313807 6.47487555,17.6025104 Z M3.48118645,7.20083663 C2.56005118,11.1422592 5.08464378,14.5397489 7.37042386,16.6903764 C8.84594606,18.0878659 11.1573136,18.0878659 12.6328358,16.6903764 C14.9100869,14.5397489 17.4346785,11.1422592 16.5306014,7.20083663 C15.6776984,3.55230099 12.4793132,2.25523011 9.99736542,2.25523011 C7.51541764,2.25523011 4.32556043,3.55230099 3.48118645,7.20083663 Z" id="Vector" fill="#CBC6B6"></path>
                <path d="M20,0 L20,20 L0,20 L0,0 L20,0 Z" id="Vector" opacity="0"></path>
            </g>
        </g>
    </g>
</svg>