<?xml version="1.0" encoding="UTF-8"?>
<svg width="28px" height="34px" viewBox="0 0 28 34" version="1.1" xmlns="http://www.w3.org/2000/svg" xmlns:xlink="http://www.w3.org/1999/xlink">
    <title>noun-target-audience-5007973-0000DD</title>
    <g id="Page-1" stroke="none" stroke-width="1" fill="none" fill-rule="evenodd">
        <g id="Super-Admin-Settings----Existing-Experts-Option" transform="translate(-456.000000, -462.000000)" fill="#0000DD" fill-rule="nonzero">
            <g id="noun-target-audience-5007973-0000DD" transform="translate(456.000000, 462.000000)">
                <path d="M24.3214497,2.5629445 L21.4322568,0.879107392 C19.0159227,-0.541562107 15.8117428,-0.22583673 12.4496441,1.72102595 C5.56804767,5.72038767 0,15.350059 0,23.2957512 C0,27.1371556 1.31331243,30.0311944 3.7296466,31.452148 L6.5662313,33.1359851 C9.35034967,34.7673118 12.7648202,33.8726934 15.6013104,32.2413194 C22.5353731,28.242147 28.0509545,18.5597285 27.9984881,10.7191519 C28.0509261,6.8252371 26.7375948,3.93115094 24.3212606,2.56275511 L24.3214497,2.5629445 Z M0.525324973,23.2432408 C0.525324973,15.5077797 5.93602094,6.03601835 12.6597457,2.1420089 C14.5508022,1.03687538 16.3893923,0.458171788 18.0703944,0.458171788 C20.276627,0.458171788 21.3798378,1.45804773 21.8525074,1.66851553 L21.7998851,1.66851553 C19.5410444,1.40531951 17.2297374,2.19470871 15.2860256,3.35235265 C9.08790933,6.98328918 3.99253124,15.1394965 3.04671941,22.4540221 C2.67892575,25.4007607 2.88904156,28.8210874 4.6225998,31.2415855 C4.6225998,31.2942995 4.6752221,31.2942995 4.6752221,31.3468288 C4.46510629,31.0838175 0.57774403,29.9259699 0.525324973,23.2429899 L0.525324973,23.2432408 Z M15.9689055,31.3996376 L15.9689055,28.5581092 C15.9689055,28.4001565 15.8638452,28.2949131 15.7061674,28.2949131 C15.5484895,28.2949131 15.4434293,28.4001565 15.4434293,28.5581092 L15.4434293,31.7153629 C15.4434293,31.7153629 15.390807,31.7153629 15.390807,31.768077 C8.98188009,35.4515239 3.67663671,32.8205107 3.41366699,25.4010116 L6.14534267,23.8223848 C6.25040293,23.7696707 6.30302051,23.6119027 6.25040293,23.4539501 C6.19778063,23.3487067 6.04028713,23.2959974 5.88260928,23.3487067 L3.41366699,24.7695656 C3.41366699,24.0854151 3.46628929,23.3487067 3.57134483,22.6120457 C4.41217675,15.6133403 9.29726415,7.61509032 15.3384541,3.98386969 L15.3384541,6.82539809 C15.3384541,6.98335074 15.4435143,7.08859411 15.6011922,7.08859411 C15.75887,7.08859411 15.8639303,6.98335074 15.8639303,6.82539809 L15.8639303,3.66814431 C18.9630357,1.9843072 21.8521812,1.72109224 24.0586028,2.98399375 C26.3174435,4.24689526 27.5257051,6.98316608 27.5257051,10.6668971 L27.5257051,10.8248498 L24.7940294,12.4034767 C24.6889692,12.4561907 24.6363516,12.6139587 24.6889692,12.7719113 C24.7415915,12.8771547 24.899085,12.929864 25.0567628,12.8771547 L27.5257051,11.4562958 C27.1577224,18.8233791 22.1675227,27.505827 15.9689338,31.3998364 L15.9689055,31.3996376 Z" id="Shape"></path>
                <path d="M16.081181,17.7475067 L15.7641057,17.9461975 C12.8575025,19.5357063 10.4264171,23.1618708 10.0036817,26.3907699 C9.95074231,26.8379171 10.4793898,27.1359555 10.9021728,26.9372781 L21.5242919,21.1754095 C21.8413672,21.0263054 22,20.6786936 22,20.3308629 C21.6297998,17.250983 19.1461317,16.1083979 16.0812286,17.7476989 L16.081181,17.7475067 Z" id="Path"></path>
                <path d="M15.5,15.6871741 C16.863655,14.9435254 18,13.137576 18,11.6503264 C18,10.1630768 16.8636038,9.57868235 15.5,10.3223311 C14.136345,11.0659798 13,12.8719291 13,14.3591788 C13,15.7934233 14.1363962,16.4308228 15.5,15.6871741 L15.5,15.6871741 Z" id="Path"></path>
            </g>
        </g>
    </g>
</svg>