<?xml version="1.0" encoding="UTF-8"?>
<svg width="35px" height="43px" viewBox="0 0 35 43" version="1.1" xmlns="http://www.w3.org/2000/svg" xmlns:xlink="http://www.w3.org/1999/xlink">
    <title>noun-data-analytics-5007627-0000DD</title>
    <g id="Page-1" stroke="none" stroke-width="1" fill="none" fill-rule="evenodd">
        <g id="Proposals----Super-Admin-View" transform="translate(-7.000000, -237.000000)" fill="#C3C6D1" fill-rule="nonzero">
            <g id="Group-2" transform="translate(0.000000, 231.000000)">
                <g id="noun-data-analytics-5007627-0000DD" transform="translate(7.000000, 6.000000)">
                    <path d="M34.2131279,2.0605217 L30.9360816,0.211375453 C30.5428313,-0.118715901 29.9528379,-0.0527891461 29.2974405,0.343460723 L16.7786588,7.60823975 C16.4508362,7.80647759 16.1232613,7.87240435 15.7954152,7.80647759 L11.4696621,7.21198393 C11.01076,7.07989866 10.5520585,7.14582542 10.0277641,7.47614853 L2.09729549,12.0990439 C0.917544661,12.7594405 0,14.4105807 0,15.7314334 L0.0656576984,39.4404631 C0.0656576984,40.1008598 0.327822583,40.6953534 0.786754148,40.9595002 L3.99839637,42.8086464 C4.52272614,43.1389696 5.17814719,43.0068843 5.70250055,42.6765612 L32.9027045,26.8265664 C34.0824553,26.1661698 35,24.5150296 35,23.1941769 L34.9343423,3.57957065 C34.9343423,2.8529739 34.6721774,2.32468036 34.2132459,2.06053359 L34.2131279,2.0605217 Z M2.42520064,12.6275811 L10.3556692,8.00468572 C10.6178341,7.87260045 10.8145713,7.80644788 11.0110667,7.80644788 C11.0767244,7.80644788 11.2078039,7.80644788 11.2732316,7.87260639 L15.5989846,8.46710005 C16.0578867,8.59918532 16.5822283,8.53325856 17.0408827,8.20293545 L29.5596643,0.938156425 C29.9529146,0.673991827 30.3461649,0.673991827 30.6083121,0.806071155 L32.8367106,2.06096145 C32.5747758,2.12665645 30.4120408,3.44747944 19.9906136,9.45707104 C19.7938764,9.58915631 19.5973633,9.65530888 19.4006202,9.65530888 C19.2695348,9.65530888 14.6816169,8.99491224 14.6159769,8.99491224 C14.2227266,8.92875373 13.7638363,8.92875373 13.239483,9.25907684 C7.47183192,12.6273196 5.83330876,13.6178254 5.37447745,13.8160692 C5.37447745,13.8160692 5.30881976,13.8160692 5.30881976,13.8822277 L5.24316206,13.8822277 C4.65316869,14.2125508 4.19451431,14.7408681 3.86666814,15.2692211 L1.1139162,13.8163247 C1.50762649,13.3534528 1.90088856,12.8913059 2.42518295,12.6270997 L2.42520064,12.6275811 Z M3.2773412,27.817197 L3.3429989,41.2236113 L3.3429989,41.6198612 L1.11436442,40.2990085 C0.852199534,40.1669232 0.721114143,39.836606 0.721114143,39.3744056 L0.65568645,15.6653759 C0.65568645,15.269126 0.721344148,14.8728761 0.917851335,14.4766263 L3.60514019,15.8636197 C3.34297531,16.3919489 3.21188991,16.9864663 3.21188991,17.5147598 L3.2773412,27.817197 Z M34.3446969,23.1943017 C34.3446969,24.3171483 33.5580843,25.7038446 32.5748406,26.2321975 L5.37463669,42.0821923 C4.52249613,42.5445948 3.93273867,42.2142776 3.93273867,41.2896926 L3.86708097,27.8832783 L3.86708097,17.5806628 C3.86708097,16.4578162 4.71922153,15.0711199 5.63682516,14.542767 C5.70248286,14.4766085 5.76791056,14.4766085 5.76791056,14.4766085 C6.16116083,14.2124439 7.86520605,13.2217182 13.567453,9.9196161 L13.6331107,9.9196161 C13.9609333,9.72137826 14.2885082,9.72137826 14.5507143,9.78753083 C19.859711,10.5141276 19.2697177,10.5141276 19.5975049,10.4479275 C19.8596697,10.381769 20.1218346,10.3158422 20.3186013,10.1837629 C30.3462474,4.24001483 32.3124988,3.11746534 32.640404,2.91898385 L32.7060617,2.91898385 C32.7717194,2.91898385 32.7717194,2.85282534 32.9027989,2.78689858 C33.6892994,2.32449614 34.3446969,2.58866074 34.3446969,3.57939832 L34.3446969,23.1943017 Z" id="Shape"></path>
                    <path d="M6.04174875,13.9583975 C6.04174875,13.9583975 5.93041875,14.0693375 6.04174875,13.9583975 C5.93041875,14.0693375 5.93041875,14.0693375 6.04174875,13.9583975 Z" id="Path"></path>
                    <path d="M32.4075029,5.05341224 L21.6733454,11.2517614 C21.0148376,11.6474209 20.3562705,11.8453694 19.6977627,11.8453694 C19.5660552,11.8453694 14.9563642,11.1859566 14.8904126,11.1859566 C14.8244433,11.1859566 14.7587051,11.1859566 14.6927418,11.2520166 L6.92195836,15.7361181 C6.46087844,15.9338292 6,16.6593434 6,17.1208077 L6.06596929,38.6844884 C6.06596929,38.9482594 6.32937835,39.0801479 6.5927874,38.9482594 L32.1438154,24.1768919 C32.5389319,23.9789494 33,23.1876245 33,22.7261602 L32.9340307,5.2508029 C32.8678303,5.05309182 32.6044213,4.92120333 32.4069815,5.05309182 L32.4075029,5.05341224 Z M31.8147096,23.6496465 L7.31724675,37.8276434 L8.83193918,34.7942736 C8.89790847,34.6623852 8.83193918,34.4644427 8.70023169,34.3325601 C8.5685242,34.2665002 8.37085334,34.3325601 8.23915178,34.4644486 L6.72445934,37.4978184 L6.65872114,17.1214723 L8.83198066,18.374493 C8.89794995,18.374493 8.96368815,18.4405529 8.96368815,18.4405529 C9.09539564,18.4405529 9.16135901,18.374493 9.2270972,18.2426104 C9.2930665,18.110722 9.2270972,17.9127795 9.09538971,17.7808969 L6.85641571,16.5278762 C6.922385,16.3959878 6.9881232,16.3299337 7.05408656,16.2641052 L14.8906437,11.8460458 C14.956613,11.8460458 19.500317,12.5054585 19.6979938,12.5054585 C20.4882269,12.5054585 21.27846,12.307516 22.0029193,11.8460458 L31.6829192,6.24077052 L30.3658443,8.87848081 C30.299875,9.01036929 30.3658443,9.20831179 30.4975518,9.34019433 C30.563521,9.34019433 30.563521,9.40625428 30.6292592,9.40625428 C30.7609667,9.40625428 30.8926683,9.34019433 30.8926683,9.20831179 L32.2097432,6.5706015 L32.2757125,22.7927601 C32.2757125,22.85882 32.2757125,22.9246486 32.2097432,22.9907026 L32.1437739,22.9246426 L29.9047999,21.6716219 C29.7730924,21.605562 29.5754216,21.605562 29.44372,21.8035104 C29.3777507,21.9353989 29.3777507,22.1333414 29.5754275,22.2652239 L31.8144015,23.5182446 L31.8803708,23.5182446 C31.8806022,23.5840732 31.8146326,23.6499017 31.8146326,23.6499017 L31.8147096,23.6496465 Z" id="Shape"></path>
                    <polygon id="Path" points="20 14.6018784 20.0748694 27 23 25.3981216 22.9248674 13"></polygon>
                    <polygon id="Path" points="25 17.4602118 25 24 28 22.5397882 27.9251299 16"></polygon>
                    <polygon id="Path" points="15 22.4666564 15.0751328 30 18 28.4667564 18 21"></polygon>
                    <polygon id="Path" points="11 29.4101884 11 33 14 31.5256151 14 28"></polygon>
                </g>
            </g>
        </g>
    </g>
</svg>