<?xml version="1.0" encoding="UTF-8"?>
<svg width="37px" height="30px" viewBox="0 0 37 30" version="1.1" xmlns="http://www.w3.org/2000/svg" xmlns:xlink="http://www.w3.org/1999/xlink">
    <title>noun-data-service-5007956-0000DD</title>
    <defs>
        <polygon id="path-1" points="0 0 37 0 37 30 0 30"></polygon>
    </defs>
    <g id="Page-1" stroke="none" stroke-width="1" fill="none" fill-rule="evenodd">
        <g id="Proposals----Super-Admin-View" transform="translate(-14.000000, -310.000000)">
            <g id="Group-2" transform="translate(0.000000, 231.000000)">
                <g id="noun-data-service-5007956-0000DD" transform="translate(14.000000, 79.000000)">
                    <mask id="mask-2" fill="white">
                        <use xlink:href="#path-1"></use>
                    </mask>
                    <g id="Path"></g>
                    <path d="M34.5108052,22.0881423 C34.5645715,22.0338589 34.6181495,22.0338589 34.671911,21.9797658 C34.993939,21.7087344 35.2086082,21.3295167 35.2086082,20.9501235 C35.2623745,20.0288236 34.5645522,19.3245008 34.0814136,18.8367165 C32.7933017,17.6986831 31.2905204,16.8317006 29.7877392,16.0189868 C28.8216553,15.4771288 27.8555713,14.9352221 26.9430942,14.2850218 C26.0305689,13.6347727 25.1718437,12.930255 24.5277877,12.388397 L24.5277877,5.88590635 L24.5277877,5.77752988 L24.5277877,5.72324657 L24.420255,5.61467994 L20.9853059,3.60966405 C20.8779616,3.55538074 20.8242001,3.55538074 20.7168558,3.60966405 L17.2281548,5.61467994 C17.1208106,5.66896326 17.0670491,5.77733485 17.0670491,5.831428 L17.0670491,6.59006817 C16.1009651,6.10228385 15.1348811,5.72308567 14.1150453,5.28957003 C13.9539395,4.04319431 13.4709893,3.1220894 12.6122641,2.63430508 C12.5584978,2.58002177 8.26478957,0.14169991 8.53325892,0.250091008 C7.56756129,-0.18283464 6.27944931,-0.0744581702 4.88402686,0.738460433 C2.20049244,2.30996069 0,6.15704013 0,9.24591823 C0,10.8174185 0.536697227,12.0095743 1.50278121,12.5514323 C4.13275699,14.0686638 5.52822774,14.8815727 5.6355382,14.9356463 C6.01132768,15.1523944 6.49426343,15.2607709 6.97740201,15.2607709 C7.24585204,15.2607709 7.51409923,15.2064875 7.78256858,15.1523944 C7.94367434,16.7238946 7.13851259,17.319875 8.37306593,19.6500154 C10.3589857,23.4431187 14.0621628,26.2066285 18.1416026,27.0194399 C18.3027084,27.0737232 18.4636306,27.0737232 18.5173921,27.0737232 C19.1614481,27.1280065 19.5908348,27.0194399 19.9128628,26.7485986 C22.4354798,27.7239722 24.9045865,28.6452234 27.4270103,29.620597 C27.8563778,29.7832519 28.3395357,30 28.8762329,30 L29.0373387,30 C29.627836,29.9457167 30.2180919,29.620597 30.5938717,29.0787001 C30.8623217,28.6992971 30.9696612,28.2657912 30.9696612,27.886593 C31.4527998,28.2117175 31.989497,28.4827684 32.5798012,28.5911108 C33.4923265,28.8078588 34.4046104,28.5368275 34.9413076,27.9949354 C35.370675,27.5614392 35.5318049,26.9652931 35.4780048,26.4234351 C35.6391106,26.4777184 35.8000328,26.4777184 36.014702,26.4234351 C36.4440695,26.3150586 36.8198686,26.0440321 36.9272274,25.6647949 C37.1419111,25.0686195 36.8734611,24.4184192 36.2294196,23.7140477 C35.7992987,23.0093349 35.2090042,22.5217457 34.5111964,22.088035 L34.5108052,22.0881423 Z M18.8387439,7.13231621 L20.5026357,8.10768981 C20.5564021,21.3296484 20.5026357,17.0486145 20.5026357,18.1325255 L19.9121384,17.8074009 L19.751221,17.6992146 L19.751221,11.7384356 C19.751221,11.6841523 19.751221,11.6300592 19.6974547,11.5757807 C19.6974547,11.5214974 19.6436884,11.5214974 19.6436884,11.5214974 L19.5899221,11.4672141 L17.6040023,10.2751071 L17.6040023,6.42773507 L18.8387439,7.13231621 Z M23.9912885,12.4967735 L23.9912885,12.4967735 L23.9912885,16.3982679 L21.0392847,18.1322329 L21.0392847,8.10739726 L23.9912885,6.37343225 L23.9912885,12.4967735 Z M16.2627132,20.9501089 C16.2089469,10.2753167 16.2627132,15.314552 16.2627132,13.9054189 L19.2147169,12.1714539 L19.2147169,19.2161439 C19.0536112,19.3245203 16.1553544,21.0042313 16.2627132,20.9501089 Z M15.7260159,20.9501089 L12.827764,19.2161439 L12.827764,12.1714539 L15.7260159,13.9054189 L15.7260159,20.9501089 Z M15.9942776,13.4178296 L13.0960257,11.6838646 L16.0480294,9.94989964 C16.1017958,10.004183 19.107392,11.7381821 18.9462814,11.6838646 L15.9942776,13.4178296 Z M20.8246975,4.20580534 L23.7229495,5.93977034 L20.7709457,7.67373535 L19.375475,6.8608265 L17.8726938,5.93952655 L20.8246975,4.20580534 Z M1.82465949,12.117429 C1.01949292,11.6296447 0.590154453,10.6542711 0.590154453,9.24543064 C0.590154453,6.26504115 2.68343301,2.68881756 5.20585685,1.17143972 C6.17194083,0.629581746 7.35269405,0.304457213 8.31877803,0.846315182 L11.0023125,2.36354675 C10.4656152,2.41783007 9.76780742,2.63457813 9.07014449,3.06806451 C6.38661007,4.63956476 4.18611763,8.4866442 4.18611763,11.5755223 C4.18611763,12.3884312 4.34722339,13.1470226 4.61548507,13.6346118 L1.82465949,12.117429 Z M4.66930451,11.5755711 C4.66930451,8.59518157 6.70878294,5.01895798 9.2850069,3.50158014 C11.3244853,2.3094731 13.2030947,2.85133107 13.5786813,5.1272028 C12.8272666,4.85617143 12.1832106,4.58534483 11.4318441,4.58534483 C9.76795231,4.58534483 8.10425369,6.31930984 7.29908711,7.78246776 C6.65503112,8.86623246 6.22564436,10.1666818 6.17189254,11.4131063 C6.17189254,12.496871 7.40639758,13.5265133 7.78203251,14.6102292 C5.74269896,15.0976284 4.66930451,13.6346606 4.66930451,11.5755711 L4.66930451,11.5755711 Z M15.2965181,25.5016086 C15.4576239,25.2305772 15.5112018,25.0681124 15.8332153,24.9054331 C16.5310231,24.6344018 17.5506658,24.9597165 17.9800525,25.2305577 C18.3020805,25.4473057 18.3020805,25.718342 18.355842,25.9350754 L18.355842,26.5312508 C17.0139782,26.2061263 16.4234809,26.0434665 15.2964795,25.5016086 L15.2965181,25.5016086 Z M18.838826,26.5853732 C18.838826,26.3686252 18.838826,25.7183907 18.7850597,25.5016086 C18.6777155,25.176484 18.4630317,24.9597506 18.2483625,24.7970908 C17.6578652,24.4176878 16.4235533,24.0384506 15.5648281,24.4176878 C15.1354606,24.6344359 14.9743307,24.851184 14.8134133,25.2846703 C10.7879668,23.2255808 8.48006731,19.3780138 8.26515661,17.6982687 C8.10405085,16.3435019 8.80185383,15.3681283 7.88936713,13.7967743 C7.51357765,13.1465252 6.60125515,12.1711516 6.60125515,11.4666339 C6.65502146,10.3286005 7.08439373,9.13649344 7.6746979,8.16111984 C8.42611265,6.86062171 10.0900044,5.1266567 11.5927857,5.23499904 C11.8612357,5.28928236 11.9685751,5.12662257 13.7396229,5.88524811 C14.8668174,6.31874424 15.9402119,6.80654806 17.0136546,7.34840603 L17.0136546,10.0577446 L16.1011293,9.51588666 C15.993785,9.46160335 15.9400235,9.46160335 15.8326793,9.51588666 L12.3439783,11.5209026 C12.236634,11.5751859 12.1828725,11.6835575 12.1828725,11.7376506 L12.1828725,19.4322971 C12.1828725,19.5406735 12.2366388,19.594952 12.2902168,19.6490451 C12.3439831,19.7033285 15.7789178,21.7081347 15.725166,21.654061 C15.9398497,21.7624375 16.1009554,21.5456846 16.3156633,21.437313 C17.6037753,22.1418307 18.8382803,23.1172043 19.3212257,24.4717761 C19.5359094,25.1220252 19.5896758,25.7181518 19.42857,26.2600586 C19.4289473,26.5310899 19.1069187,26.5853732 18.8386522,26.5853732 L18.838826,26.5853732 Z M36.5503658,25.3932662 C36.4965995,25.6100143 36.2819157,25.7726692 36.0136685,25.8267623 C35.7452185,25.8810457 35.4769713,25.8267623 35.3158607,25.6100143 L35.2620944,25.555731 C35.2620944,25.555731 35.2620944,25.5014476 35.2083281,25.5014476 C35.1545618,25.3930712 33.3835189,23.1713072 24.8496321,19.9741355 C24.6885264,19.9198522 24.5811821,19.9741355 24.5276042,20.1367905 C24.4738378,20.2994454 24.5276042,20.4078218 24.6887099,20.461915 C33.0620173,23.5506956 34.7793712,25.7722499 34.8329781,25.8263723 C34.8329781,25.8263723 34.8867444,25.8263723 34.8867444,25.8806556 C34.8867444,25.8806556 34.8867444,25.9349389 34.9405107,25.9349389 C35.2625387,26.368435 35.1551944,27.1270459 34.725827,27.5605616 C34.2964596,27.9940577 33.5450738,28.156737 32.847266,27.9940577 C32.20321,27.8856812 31.6127609,27.5605616 30.9687049,27.0727577 C30.7002549,26.6933548 28.8218677,24.2007594 21.9516313,21.7083005 C21.7905256,21.6540171 21.6831813,21.7083005 21.6296033,21.8709554 C21.575837,22.0336103 21.6296033,22.1419867 21.7907091,22.1960799 C28.4461797,24.6886851 30.3243544,27.0729479 30.5392651,27.39817 C30.6466093,27.8316661 30.5930314,28.3194699 30.270815,28.7529368 C30.002365,29.1864329 29.5730072,29.4574545 29.0900618,29.4574545 C28.6069232,29.5117378 28.1239778,29.2947996 27.6945911,29.13233 C25.1719741,28.21103 22.7028674,27.2357052 20.1804435,26.2603316 C20.2877878,25.6641562 20.2342099,25.0139559 20.0193378,24.3637068 C19.5361992,22.9548176 18.4628048,22.0335664 17.2284446,21.2749262 C17.1746783,21.2206429 17.1211003,21.2206429 17.0673388,21.1665498 C17.1211052,21.1122664 19.858232,19.5409271 19.6973146,19.6493182 C19.8046589,19.5950349 19.8584204,19.4866633 19.8584204,19.4325701 L19.8584204,18.3488054 L20.7709457,18.8906634 C20.87829,18.9449467 20.9320515,18.9449467 21.0393958,18.8906634 L24.5280968,16.8856475 C24.635441,16.8313642 24.6892025,16.7229926 24.6892025,16.6688994 L24.6892025,13.2009207 C25.2796999,13.688705 25.9773145,14.2846854 26.7824811,14.8265433 C27.6950064,15.4767924 28.714649,16.0186504 29.680733,16.5605084 C31.1299556,17.3734172 34.8868845,19.3782381 34.8332775,20.9497871 C34.8332775,21.1665351 34.6721718,21.3832832 34.5112495,21.6000361 C34.3501438,21.7084126 34.1892215,21.762691 34.028111,21.762691 C33.6523215,21.4375665 31.8275219,20.028726 26.7288741,17.9695877 C26.5677684,17.9153044 26.4604241,17.9695877 26.3530847,18.1322427 C26.2993183,18.2948976 26.3530847,18.403274 26.5141904,18.5116456 C32.1496803,20.841786 33.7062134,22.2506753 33.7062134,22.3047489 L33.7599797,22.3047489 C34.6187049,22.7382451 35.4238715,23.3343912 36.1214861,24.0387139 C36.3359815,24.3636483 36.7117903,24.9055014 36.5506652,25.3930907 L36.5503658,25.3932662 Z" id="Shape" fill="#C3C6D1" fill-rule="nonzero" mask="url(#mask-2)"></path>
                </g>
            </g>
        </g>
    </g>
</svg>