<?xml version="1.0" encoding="UTF-8"?>
<svg width="29px" height="35px" viewBox="0 0 29 35" version="1.1" xmlns="http://www.w3.org/2000/svg" xmlns:xlink="http://www.w3.org/1999/xlink">
    <title>noun-target-audience-5007973-0000DD</title>
    <g id="Page-1" stroke="none" stroke-width="1" fill="none" fill-rule="evenodd">
        <g id="Proposals----Super-Admin-View" transform="translate(-16.000000, -426.000000)" fill="#C3C6D1" fill-rule="nonzero">
            <g id="Group-2" transform="translate(0.000000, 231.000000)">
                <g id="noun-target-audience-5007973-0000DD" transform="translate(16.000000, 195.000000)">
                    <path d="M25.1900729,2.63832523 L22.1976946,0.904963492 C19.6950628,-0.557490405 16.376448,-0.232478987 12.8942743,1.77164436 C5.76690652,5.88863437 0,15.8015314 0,23.9809204 C0,27.9353072 1.36021645,30.9144648 3.86284827,32.3772111 L6.80073956,34.1105729 C9.68429073,35.7898798 13.2207066,34.8689491 16.1585,33.1895935 C23.3402079,29.0727984 29.0527743,19.1056029 28.9984341,11.034421 C29.0527449,7.02597937 27.6925089,4.04677302 25.189877,2.63813026 L25.1900729,2.63832523 Z M0.544086579,23.9268655 C0.544086579,15.9638908 6.14802169,6.2135483 13.1118795,2.20500916 C15.0704737,1.06737172 16.9747278,0.471647429 18.7157657,0.471647429 C21.0007922,0.471647429 22.1434034,1.50093149 22.6329541,1.71758952 L22.5784524,1.71758952 C20.2389388,1.44665244 17.8450852,2.25925897 15.831955,3.45095125 C9.41247752,7.18868004 4.13512164,15.5847758 3.15553082,23.1144345 C2.77460167,26.1478419 2.99222162,29.6687664 4.78769265,32.1604556 C4.78769265,32.2147201 4.84219432,32.2147201 4.84219432,32.2687944 C4.62457437,31.9980474 0.598377745,30.8061455 0.544086579,23.9266072 L0.544086579,23.9268655 Z M16.5392235,32.3231563 L16.5392235,29.3980535 C16.5392235,29.2354552 16.4304111,29.1271165 16.2671019,29.1271165 C16.1037927,29.1271165 15.9949803,29.2354552 15.9949803,29.3980535 L15.9949803,32.6481677 C15.9949803,32.6481677 15.9404786,32.6481677 15.9404786,32.7024322 C9.30266153,36.4942158 3.80794516,33.7858198 3.53558366,26.1481002 L6.36481919,24.5230431 C6.47363161,24.4687787 6.52812839,24.3063705 6.47363161,24.1437722 C6.41912994,24.0354334 6.25601167,23.9811738 6.09270247,24.0354334 L3.53558366,25.4980823 C3.53558366,24.7938096 3.59008534,24.0354334 3.69889286,23.2771059 C4.56975449,16.0725562 9.62930929,7.83906357 15.886256,4.10104233 L15.886256,7.02614509 C15.886256,7.18874341 15.9950684,7.29708217 16.1583776,7.29708217 C16.3216868,7.29708217 16.4304992,7.18874341 16.4304992,7.02614509 L16.4304992,3.77603091 C19.640287,2.04266918 22.6326163,1.7717126 24.9178387,3.07175827 C27.2573522,4.37180394 28.508766,7.18855331 28.508766,10.9806294 L28.508766,11.1432277 L25.6795305,12.7682848 C25.5707181,12.8225492 25.5162213,12.9849575 25.5707181,13.1475558 C25.6252197,13.2558945 25.788338,13.3101541 25.9516472,13.2558945 L28.508766,11.7932457 C28.1276411,19.3770079 22.95922,28.3148219 16.5392529,32.323361 L16.5392235,32.3231563 Z" id="Shape"></path>
                    <path d="M16.5879461,16.8222574 L16.2444478,17.0408173 C13.0956277,18.7892769 10.4619519,22.7780579 10.0039885,26.3298469 C9.9466375,26.8217088 10.519339,27.1495511 10.9773539,26.9310059 L22.4846495,20.5929505 C22.8281478,20.4289359 23,20.046563 23,19.6639492 C22.5989498,16.2760813 19.9083094,15.0192377 16.5879976,16.8224688 L16.5879461,16.8222574 Z" id="Path"></path>
                    <path d="M16,16.6871741 C17.090924,15.9435254 18,14.137576 18,12.6503264 C18,11.1630768 17.0908831,10.5786823 16,11.3223311 C14.909076,12.0659798 14,13.8719291 14,15.3591788 C14,16.7934233 14.9091169,17.4308228 16,16.6871741 L16,16.6871741 Z" id="Path"></path>
                </g>
            </g>
        </g>
    </g>
</svg>