<?xml version="1.0" encoding="UTF-8"?>
<svg width="33px" height="43px" viewBox="0 0 33 43" version="1.1" xmlns="http://www.w3.org/2000/svg" xmlns:xlink="http://www.w3.org/1999/xlink">
    <title>noun-adjustment-5007643-0000DD</title>
    <g id="Page-1" stroke="none" stroke-width="1" fill="none" fill-rule="evenodd">
        <g id="Proposals----Super-Admin-View" transform="translate(-13.000000, -478.000000)" fill="#C3C6D1" fill-rule="nonzero">
            <g id="Group-2" transform="translate(0.000000, 231.000000)">
                <g id="noun-adjustment-5007643-0000DD" transform="translate(13.000000, 247.000000)">
                    <polygon id="Path" points="27 10.6876026 27 7 25 8.37499156 25 12"></polygon>
                    <polygon id="Path" points="25 16.409372 25.0527202 28 27 26.5912043 27 15"></polygon>
                    <polygon id="Path" points="23 13.6279362 23.0667824 16 29 12.4417473 29 10"></polygon>
                    <polygon id="Path" points="19 24.4902633 18.9232132 12 16 13.5097367 16.0770567 26"></polygon>
                    <polygon id="Path" points="17 29.3462071 17 33 19 31.6537929 19 28"></polygon>
                    <polygon id="Path" points="14 26.5580388 14 29 20 25.3720886 20 23"></polygon>
                    <polygon id="Path" points="10 20.6250084 10 17 8 18.3749916 8 22"></polygon>
                    <polygon id="Path" points="8 25.4158244 8.07678678 37 11 35.5841756 10.9229433 24"></polygon>
                    <polygon id="Path" points="6 23.558141 6 26 12 22.3719894 12 20"></polygon>
                    <path d="M32.3384825,1.55648165 L29.9577835,0.168334148 C29.5610003,-0.0960502606 29.0979875,-0.030068648 28.5689234,0.234547713 L1.65336236,15.833662 C0.727515143,16.3624308 0,17.6183891 0,18.6759148 L0.0662475551,40.2237228 C0.0662475551,40.8187112 0.264752198,41.2152908 0.661541313,41.4796573 L2.97618912,42.8678048 C3.17469376,42.9340184 3.3069568,43 3.50522937,43 C3.76974949,43 4.10052313,42.9337864 4.3650254,42.7356156 L31.3466376,27.2031134 C32.2724849,26.6743446 33,25.4183863 33,24.3608606 L32.9335204,2.74703522 C32.9335204,2.2182664 32.6690002,1.7557052 32.3382266,1.55729646 L32.3384825,1.55648165 Z M2.31494533,20.0639255 L2.38119288,41.6117335 L2.38119288,41.7439287 L0.992332797,40.9507696 C0.793828154,40.884556 0.727812671,40.6201716 0.727812671,40.2898234 L0.661565116,18.7420154 C0.661565116,17.9488562 1.25685887,16.8913304 1.9841955,16.4947509 L28.8997566,0.829619307 C29.0982612,0.697424129 29.4287968,0.631216512 29.6273312,0.697424129 L31.0161913,1.4905833 C30.8176866,1.55679687 31.346959,1.29218051 3.90247668,17.0896976 C3.04268064,17.7506437 2.31534402,19.0063998 2.31534402,20.0639255 L2.31494533,20.0639255 Z M31.0156736,26.6073697 L4.03406135,42.206484 C3.43876759,42.537082 3.04198443,42.2726975 3.04198443,41.6777152 L2.97573687,20.1299071 C2.97573687,19.3367479 3.57103063,18.2792222 4.29836726,17.8826426 L31.2799795,2.21751107 C31.8752733,1.88691309 32.2720564,2.08531589 32.2720564,2.8124994 L32.338304,24.3603074 C32.2720564,25.1534666 31.6767805,26.2109924 31.0154951,26.6075719 L31.0156736,26.6073697 Z" id="Shape"></path>
                </g>
            </g>
        </g>
    </g>
</svg>