<?xml version="1.0" encoding="UTF-8"?>
<svg width="24px" height="24px" viewBox="0 0 24 24" version="1.1" xmlns="http://www.w3.org/2000/svg" xmlns:xlink="http://www.w3.org/1999/xlink">
    <title>vuesax/bold/profile-add</title>
    <g id="Page-1" stroke="none" stroke-width="1" fill="none" fill-rule="evenodd">
        <g id="Proposals----Super-Admin-View" transform="translate(-1184.000000, -407.000000)">
            <g id="vuesax/bold/profile-add" transform="translate(1184.000000, 407.000000)">
                <path d="M0,0 L24,0 L24,24 L0,24 L0,0 Z" id="vuesax/bold/profile-add-(Background)"></path>
                <g id="profile-add">
                    <path d="M7.25,6.75 C7.25,9.31999993 9.26000023,11.3999998 11.8800001,11.4899998 C11.9600001,11.4799998 12.0400004,11.4799998 12.1000004,11.4899998 C12.1200004,11.4899998 12.1299996,11.4899998 12.1499996,11.4899998 C12.1599996,11.4899998 12.1600001,11.4899998 12.1700001,11.4899998 C14.73,11.3999998 16.74,9.31999993 16.75,6.75 C16.75,4.13000011 14.6199999,2 12,2 C9.38000011,2 7.25,4.13000011 7.25,6.75 Z" id="Vector" fill="#FFFFFF" fill-rule="nonzero"></path>
                    <path d="M6.93002176,14.1500049 C5.66002178,15.0000049 4.96002197,16.1500044 4.96002197,17.3800044 C4.96002197,18.6100044 5.66002202,19.7500054 6.92002201,20.5900054 C8.32002199,21.5300054 10.1600219,22.0000057 12.0000219,22.0000057 C13.840022,22.0000057 15.6800219,21.5300054 17.0800219,20.5900054 C18.3400218,19.7400054 19.0400229,18.6000059 19.0400229,17.3600059 C19.0300229,16.1300058 18.3400218,14.9900048 17.0800219,14.1500049 C14.2900219,12.2900048 9.74002171,12.2900048 6.93002176,14.1500049 Z M12.7500219,18.1300044 L12.7500219,19.3800044 C12.7500219,19.7900044 12.4100219,20.1300044 12.0000219,20.1300044 C11.5900219,20.1300044 11.2500219,19.7900044 11.2500219,19.3800044 L11.2500219,18.1300044 L10.0000219,18.1300044 C9.59002194,18.1300044 9.25002193,17.7900044 9.25002193,17.3800044 C9.25002193,16.9700044 9.59002194,16.6300044 10.0000219,16.6300044 L11.2500219,16.6300044 L11.2500219,15.3800054 C11.2500219,14.9700054 11.5900219,14.6300054 12.0000219,14.6300054 C12.4100219,14.6300054 12.7500219,14.9700054 12.7500219,15.3800054 L12.7500219,16.6300044 L14.0000219,16.6300044 C14.4100219,16.6300044 14.7500219,16.9700044 14.7500219,17.3800044 C14.7500219,17.7900044 14.4100219,18.1300044 14.0000219,18.1300044 L12.7500219,18.1300044 Z" id="Vector" fill="#FFFFFF"></path>
                    <path d="M24,0 L24,24 L0,24 L0,0 L24,0 Z" id="Vector" opacity="0" transform="translate(12.000000, 12.000000) rotate(-180.000000) translate(-12.000000, -12.000000) "></path>
                </g>
            </g>
        </g>
    </g>
</svg>