<?xml version="1.0" encoding="UTF-8"?>
<svg width="24px" height="21px" viewBox="0 0 24 21" version="1.1" xmlns="http://www.w3.org/2000/svg" xmlns:xlink="http://www.w3.org/1999/xlink">
    <title>noun-animal-3846086-0000DD</title>
    <g id="Page-1" stroke="none" stroke-width="1" fill="none" fill-rule="evenodd">
        <g id="Proposals----Super-Admin-View" transform="translate(-946.000000, -411.000000)" fill="#FFFFFF" fill-rule="nonzero">
            <g id="noun-animal-3846086-0000DD" transform="translate(946.000000, 411.000000)">
                <path d="M5.87895242,13.6701766 C5.48219731,13.8844313 5.02546955,13.9985228 4.55917014,14 C3.04598804,13.8772174 1.69473212,13.1206974 0.933271285,11.970256 C0.35057695,11.2158427 0.028451815,10.3308328 0.00518242408,9.42051775 C-0.0525400588,8.60286247 0.374949838,7.81697506 1.13641067,7.34012139 C1.92617859,6.92063032 2.90747519,6.88702017 3.73245906,7.25127209 C4.68789546,7.6371572 5.49791015,8.25319776 6.06745848,9.02725091 C6.65648593,9.78854656 6.97904286,10.6834183 6.99554734,11.6023782 C7.04840004,12.4126896 6.6280253,13.1911491 5.87895242,13.670143 L5.87895242,13.6701766 Z M18.0234258,15.550837 C17.4597728,15.1423803 16.9793565,14.6455522 16.6047689,14.083385 C16.4239536,13.7389082 16.2848395,13.3942795 16.1457208,13.0498111 C15.5615923,11.6206475 14.907893,10 12.0008243,10 C9.09393974,10 8.44005635,11.6206475 7.85592789,13.0498111 C7.71681375,13.3942879 7.57769501,13.7389167 7.39687975,14.083385 L7.39705948,14.083385 C7.02231081,14.64551 6.54205553,15.1423718 5.97840262,15.550837 C4.67100394,16.6482388 2.87670118,18.1541057 4.93520762,20.2340865 C6.06177724,21.3826098 7.39705948,20.9997265 8.81571634,20.5914218 C9.83806768,20.249748 10.9134254,20.060282 12.0008384,20.0299299 C13.0884355,20.0602714 14.1637932,20.2497396 15.1861445,20.5914218 C15.8511629,20.8204679 16.5494484,20.9581581 17.2585007,20.9997138 C17.9567862,21.0102674 18.6223567,20.7284534 19.0666532,20.2340739 C21.122491,18.1541775 19.3281698,16.6483527 18.0207895,15.5508243 L18.0234258,15.550837 Z M22.8645845,7.34012302 C22.0747043,6.92062994 21.0932683,6.88701963 20.2681673,7.25127329 C19.3125951,7.63716026 18.5024654,8.25320377 17.9328361,9.02726063 C17.343725,9.78855993 17.0211222,10.683436 17.0044235,11.6024003 C16.9517504,12.4127155 17.3721849,13.1911788 18.1213689,13.670175 C18.5181804,13.8844307 18.9749731,13.9985228 19.4413387,14 C20.9547358,13.8772168 22.3061837,13.1206932 23.0675608,11.9702462 C24.3846994,10.1944268 24.2977507,8.15187345 22.8617486,7.34143235 L22.8645845,7.34012302 Z M9.05273577,7.99935117 C9.19316975,8.00411878 9.33314994,7.98258207 9.46670658,7.93572839 C10.7556807,7.57947113 11.3351694,5.55668173 10.8030553,3.34320496 C10.2709413,1.12951776 8.81633192,-0.320839189 7.52735781,0.0609311565 L7.52720497,0.0609311565 C7.17359284,0.189329896 6.85863938,0.417685043 6.615233,0.722158573 C6.37179923,1.02646796 6.20889065,1.39571745 6.14363802,1.79108187 C5.93382422,2.73492288 5.95414721,3.72085079 6.20277615,4.65366502 C6.68536392,6.63831527 7.8797452,7.99957423 9.0504587,7.99957423 L9.05273577,7.99935117 Z M14.5369564,7.93591829 C14.670528,7.98195281 14.8103561,8.00348861 14.950489,7.99954087 C15.6042785,7.95137255 16.2109389,7.61549901 16.6278323,7.070854 C17.1967816,6.38117794 17.5983952,5.55080578 17.7974629,4.65364191 C18.0458287,3.72083052 18.0661302,2.73490563 17.8563861,1.79106751 C17.7913549,1.39568326 17.6286305,1.0264349 17.3854466,0.722147487 C17.1422705,0.41767489 16.8276738,0.189328859 16.4742836,0.0609220952 C15.1749111,-0.320817621 13.7454842,1.12954751 13.2020534,3.34318585 C12.6587789,5.55686628 13.247084,7.58090368 14.5347211,7.93569523 L14.5369564,7.93591829 Z" id="Shape"></path>
            </g>
        </g>
    </g>
</svg>