<?xml version="1.0" encoding="UTF-8"?>
<svg width="24px" height="24px" viewBox="0 0 24 24" version="1.1" xmlns="http://www.w3.org/2000/svg" xmlns:xlink="http://www.w3.org/1999/xlink">
    <title>vuesax/bold/calendar</title>
    <g id="Page-1" stroke="none" stroke-width="1" fill="none" fill-rule="evenodd">
        <g id="Proposals----Super-Admin-View" transform="translate(-1006.000000, -482.000000)">
            <g id="vuesax/bold/calendar" transform="translate(1006.000000, 482.000000)">
                <path d="M0,0 L24,0 L24,24 L0,24 L0,0 Z" id="vuesax/bold/calendar-(Background)"></path>
                <g id="calendar">
                    <path d="M24,0 L24,24 L0,24 L0,0 L24,0 Z" id="Vector" opacity="0"></path>
                    <path d="M16.7499847,2 C16.7499847,1.59 16.4099847,1.25 15.9999847,1.25 C15.5899847,1.25 15.2499847,1.59 15.2499847,2 L15.2499847,3.5 L8.74998522,3.5 L8.74998522,2 C8.74998522,1.59 8.40998521,1.25 7.99998522,1.25 C7.58998522,1.25 7.24998522,1.59 7.24998522,2 L7.24998522,3.55999994 C4.54998517,3.80999994 3.23998504,5.41999984 3.03998504,7.80999994 C3.01998504,8.09999993 3.25998506,8.34000015 3.53998506,8.34000015 L20.4599838,8.34000015 C20.7499838,8.34000015 20.9899838,8.08999994 20.9599838,7.80999994 C20.7599838,5.41999984 19.4499848,3.80999994 16.7499847,3.55999994 L16.7499847,2 Z" id="Vector" fill="#ADA7A7" fill-rule="nonzero"></path>
                    <path d="M4,9.83999634 C3.44999999,9.83999634 3,10.2899963 3,10.8399963 L3,16.9999962 C3,19.9999962 4.5,21.9999962 8,21.9999962 L16,21.9999962 C19.5,21.9999962 21,19.9999962 21,16.9999962 L21,10.8399963 C21,10.2899963 20.55,9.83999634 20,9.83999634 L4,9.83999634 Z M9.06000042,18.3299961 C9,18.3699961 8.94000011,18.3999963 8.88000011,18.4199963 C8.82000012,18.4499963 8.75999981,18.4699957 8.69999981,18.4799957 C8.62999981,18.4899957 8.57,18.4999962 8.5,18.4999962 C8.37,18.4999962 8.23999988,18.4699963 8.11999989,18.4199963 C7.98999989,18.3699963 7.88999996,18.2999953 7.78999996,18.2099953 C7.60999995,18.0199953 7.5,17.7599962 7.5,17.4999962 C7.5,17.2399962 7.60999995,16.9799971 7.78999996,16.7899971 C7.88999996,16.6999971 7.98999989,16.6299961 8.11999989,16.5799961 C8.29999989,16.4999961 8.5,16.4799966 8.69999981,16.5199966 C8.75999981,16.5299966 8.82000012,16.5499961 8.88000011,16.5799961 C8.94000011,16.5999961 9,16.6299963 9.06000042,16.6699963 C9.11000042,16.7099963 9.16000004,16.7499971 9.21000004,16.7899971 C9.39000005,16.9799971 9.5,17.2399962 9.5,17.4999962 C9.5,17.7599962 9.39000005,18.0199953 9.21000004,18.2099953 C9.16000004,18.2499953 9.11000042,18.2999961 9.06000042,18.3299961 Z M8.5,14.9999962 C8.24000001,14.9999962 7.97999996,14.8899962 7.78999996,14.7099962 C7.60999995,14.5199962 7.5,14.2599962 7.5,13.9999962 C7.5,13.7399962 7.60999995,13.4799961 7.78999996,13.2899961 C8.06999996,13.0099961 8.51000011,12.9199961 8.88000011,13.0799961 C9.01000011,13.1299961 9.12000003,13.1999961 9.21000004,13.2899961 C9.39000005,13.4799961 9.5,13.7399962 9.5,13.9999962 C9.5,14.2599962 9.39000005,14.5199962 9.21000004,14.7099962 C9.02000004,14.8899962 8.75999999,14.9999962 8.5,14.9999962 Z M12,18.4999962 C11.74,18.4999962 11.48,18.3899953 11.29,18.2099953 C11.11,18.0199953 11,17.7599962 11,17.4999962 C11,17.2399962 11.11,16.9799971 11.29,16.7899971 C11.66,16.4199971 12.34,16.4199971 12.71,16.7899971 C12.89,16.9799971 13,17.2399962 13,17.4999962 C13,17.7599962 12.89,18.0199953 12.71,18.2099953 C12.52,18.3899953 12.26,18.4999962 12,18.4999962 Z M12.5600004,14.8299961 C12.5,14.8699961 12.4400001,14.8999963 12.3800001,14.9199963 C12.3200001,14.9499963 12.2599998,14.9699957 12.1999998,14.9799957 C12.1299998,14.9899957 12.07,14.9999962 12,14.9999962 C11.74,14.9999962 11.48,14.8899962 11.29,14.7099962 C11.11,14.5199962 11,14.2599962 11,13.9999962 C11,13.7399962 11.11,13.4799961 11.29,13.2899961 C11.38,13.1999961 11.4899999,13.1299961 11.6199999,13.0799961 C11.9899999,12.9199961 12.43,13.0099961 12.71,13.2899961 C12.89,13.4799961 13,13.7399962 13,13.9999962 C13,14.2599962 12.89,14.5199962 12.71,14.7099962 C12.66,14.7499962 12.6100004,14.7899961 12.5600004,14.8299961 Z M15.5,18.4999962 C15.24,18.4999962 14.98,18.3899953 14.79,18.2099953 C14.61,18.0199953 14.5,17.7599962 14.5,17.4999962 C14.5,17.2399962 14.61,16.9799971 14.79,16.7899971 C15.16,16.4199971 15.8399991,16.4199971 16.2099991,16.7899971 C16.3899991,16.9799971 16.5,17.2399962 16.5,17.4999962 C16.5,17.7599962 16.3899991,18.0199953 16.2099991,18.2099953 C16.0199991,18.3899953 15.76,18.4999962 15.5,18.4999962 Z M16.0599995,14.8299961 C16,14.8699961 15.9400001,14.8999963 15.8800001,14.9199963 C15.8200001,14.9499963 15.7599998,14.9699957 15.6999998,14.9799957 C15.6299998,14.9899957 15.56,14.9999962 15.5,14.9999962 C15.24,14.9999962 14.98,14.8899962 14.79,14.7099962 C14.61,14.5199962 14.5,14.2599962 14.5,13.9999962 C14.5,13.7399962 14.61,13.4799961 14.79,13.2899961 C14.89,13.1999961 14.9899999,13.1299961 15.1199999,13.0799961 C15.2999999,12.9999961 15.5,12.9799966 15.6999998,13.0199966 C15.7599998,13.0299966 15.8200001,13.0499961 15.8800001,13.0799961 C15.9400001,13.0999961 16,13.1299963 16.0599995,13.1699963 C16.1099995,13.2099963 16.1599991,13.2499961 16.2099991,13.2899961 C16.3899991,13.4799961 16.5,13.7399962 16.5,13.9999962 C16.5,14.2599962 16.3899991,14.5199962 16.2099991,14.7099962 C16.1599991,14.7499962 16.1099995,14.7899961 16.0599995,14.8299961 Z" id="Vector" fill="#ADA7A7"></path>
                </g>
            </g>
        </g>
    </g>
</svg>