<?xml version="1.0" encoding="UTF-8"?>
<svg width="24px" height="24px" viewBox="0 0 24 24" version="1.1" xmlns="http://www.w3.org/2000/svg" xmlns:xlink="http://www.w3.org/1999/xlink">
    <title>vuesax/bold/document-text</title>
    <g id="Page-1" stroke="none" stroke-width="1" fill="none" fill-rule="evenodd">
        <g id="Proposals----Super-Admin-View" transform="translate(-1173.000000, -482.000000)">
            <g id="vuesax/bold/document-text" transform="translate(1173.000000, 482.000000)">
                <path d="M0,0 L24,0 L24,24 L0,24 L0,0 Z" id="vuesax/bold/document-text-(Background)"></path>
                <g id="document-text">
                    <path d="M14.6799927,2.64999312 L14.6799927,6.13999271 C14.6799927,7.59999275 15.9199927,8.80999327 17.4299927,8.80999327 C18.3799927,8.81999254 19.6999923,8.81999254 20.8299923,8.81999254 C21.3999923,8.81999254 21.6999916,8.14999285 21.2999916,7.74999285 C19.8599916,6.2999928 17.2799926,3.68999307 15.7999926,2.20999305 C15.3899926,1.79999305 14.6799927,2.07999313 14.6799927,2.64999312 Z" id="Vector" fill="#ADA7A7" fill-rule="nonzero"></path>
                    <path d="M17.6100006,10.1899996 C15.2400007,10.1899996 13.3100004,8.25999975 13.3100004,5.88999987 L13.3100004,3 C13.3100004,2.44999999 12.8600004,2 12.3100004,2 L8.06999969,2 C4.98999977,2 2.5,4 2.5,7.57000017 L2.5,16.4300003 C2.5,20 4.98999977,22 8.06999969,22 L15.9300003,22 C19.0100002,22 21.5,20 21.5,16.4300003 L21.5,11.1899996 C21.5,10.6399996 21.05,10.1899996 20.5,10.1899996 L17.6100006,10.1899996 Z M7.5,17.75 C7.09,17.75 6.75,17.41 6.75,17 C6.75,16.59 7.09,16.25 7.5,16.25 L11.5,16.25 C11.91,16.25 12.25,16.59 12.25,17 C12.25,17.41 11.91,17.75 11.5,17.75 L7.5,17.75 Z M7.5,13.75 C7.09,13.75 6.75,13.41 6.75,13 C6.75,12.59 7.09,12.25 7.5,12.25 L13.5,12.25 C13.91,12.25 14.25,12.59 14.25,13 C14.25,13.41 13.91,13.75 13.5,13.75 L7.5,13.75 Z" id="Vector" fill="#ADA7A7"></path>
                    <path d="M24,0 L24,24 L0,24 L0,0 L24,0 Z" id="Vector" opacity="0" transform="translate(12.000000, 12.000000) rotate(-180.000000) translate(-12.000000, -12.000000) "></path>
                </g>
            </g>
        </g>
    </g>
</svg>