<?xml version="1.0" encoding="UTF-8"?>
<svg width="27px" height="16px" viewBox="0 0 27 16" version="1.1" xmlns="http://www.w3.org/2000/svg" xmlns:xlink="http://www.w3.org/1999/xlink">
    <title>noun-education-1724957-0000DD</title>
    <g id="Page-1" stroke="none" stroke-width="1" fill="none" fill-rule="evenodd">
        <g id="Proposals----Super-Admin-View" transform="translate(-944.000000, -558.000000)" fill="#FFFFFF" fill-rule="nonzero">
            <g id="noun-education-1724957-0000DD" transform="translate(944.000000, 558.000000)">
                <path d="M13.3894627,10.3883359 C12.6444289,10.3883359 11.8992126,10.2689142 11.1817132,10.0599992 L5,8.06003871 L5,12.6269305 C5,13.4627326 5.49671351,14.1791286 6.24189333,14.41798 L8.94635633,15.2835644 C11.92682,16.2388119 15.0729278,16.2388119 18.053501,15.2835644 L20.757964,14.41798 C21.5029978,14.1791326 22,13.4627326 22,12.6269305 L22,8 L15.5973548,10.0596832 C14.8798554,10.2985306 14.1347851,10.3880199 13.3896053,10.3880199 L13.3894627,10.3883359 Z" id="Path"></path>
                <path d="M26.421229,3.63465136 L15.2022062,0.259665463 C14.0945105,-0.0865551544 12.9016883,-0.0865551544 11.7655419,0.259665463 L0.575082501,3.63465136 C-0.191694167,3.86546638 -0.191694167,4.99047821 0.575082501,5.22110619 L11.7941053,8.59609209 C12.901801,8.94231271 14.0946232,8.94231271 15.2307696,8.59609209 L24.8306992,5.71152465 L24.8306992,8.27881639 C24.6319168,8.39422199 24.4898065,8.59611117 24.4898065,8.82691092 L24.4898065,9.51921474 C24.4898065,9.77880673 24.6317703,10.0096332 24.8590334,10.0960901 L24.2625471,11.509593 C24.1773981,11.7114822 24.2908816,11.9133637 24.5181443,11.9422972 L25.1429685,12 L25.5121954,12 L26.1370195,11.9422972 C26.3358019,11.9135199 26.4494316,11.7114822 26.3926168,11.509593 L25.7961305,10.0960901 C26.0233936,9.98068446 26.1653574,9.77879528 26.1653574,9.51921474 L26.1653574,8.82691092 C26.1653574,8.59609591 26.0233936,8.39420672 25.8244646,8.27881639 L25.8244646,5.42302973 L26.4492888,5.22114055 C27.1881786,4.96154856 27.1881786,3.86531369 26.4212482,3.63468571 L26.421229,3.63465136 Z" id="Path"></path>
            </g>
        </g>
    </g>
</svg>