<?xml version="1.0" encoding="UTF-8"?>
<svg width="22px" height="22px" viewBox="0 0 22 22" version="1.1" xmlns="http://www.w3.org/2000/svg" xmlns:xlink="http://www.w3.org/1999/xlink">
    <title>noun-healthcare-2135212-0000DD</title>
    <g id="Page-1" stroke="none" stroke-width="1" fill="none" fill-rule="evenodd">
        <g id="Proposals----Super-Admin-View" transform="translate(-947.000000, -626.000000)" fill="#FFFFFF" fill-rule="nonzero">
            <g id="noun-healthcare-2135212-0000DD" transform="translate(947.000000, 626.000000)">
                <path d="M18.6999651,4.39993013 L16.3899581,4.39993013 C15.8400279,1.86994411 13.639993,0 11,0 C8.36004192,0 6.15990218,1.87004891 5.61004192,4.39993013 L3.30003493,4.39993013 C1.42998603,4.39993013 0,5.82991616 0,7.69996507 L0,18.6999651 C0,20.4600419 1.42998603,22 3.30003493,22 L18.6999651,22 C20.570014,22 22,20.4600419 22,18.6999651 L22,7.69996507 C22,5.82991616 20.570014,4.39993013 18.6999651,4.39993013 L18.6999651,4.39993013 Z M10.9998253,2.1998952 C12.4298114,2.1998952 13.6397834,3.07991616 14.0798812,4.39993013 L7.91997904,4.39993013 C8.35993712,3.07995109 9.56990917,2.1998952 10.9998952,2.1998952 L10.9998253,2.1998952 Z M14.2998603,14.2999651 L12.0998253,14.2999651 L12.0998253,16.5 C12.0998253,17.0499301 11.5498952,17.6 10.9998253,17.6 C10.4498952,17.6 9.89982533,17.0500699 9.89982533,16.5 L9.89982533,14.2999651 L7.69993013,14.2999651 C7.15,14.2999651 6.59993013,13.7500349 6.59993013,13.1999651 C6.59993013,12.6500349 7.14986026,12.0999651 7.69993013,12.0999651 L9.89996507,12.0999651 L9.89996507,9.89993013 C9.89996507,9.35 10.4498952,8.79993013 10.9999651,8.79993013 C11.5498952,8.79993013 12.0999651,9.34986026 12.0999651,9.89993013 L12.0999651,12.0999651 L14.3,12.0999651 C14.8499301,12.0999651 15.4,12.6498952 15.4,13.1999651 C15.3998635,13.7500349 14.8499301,14.2999651 14.2998603,14.2999651 L14.2998603,14.2999651 Z" id="Shape"></path>
            </g>
        </g>
    </g>
</svg>