<?xml version="1.0" encoding="UTF-8"?>
<svg width="22px" height="40px" viewBox="0 0 22 40" version="1.1" xmlns="http://www.w3.org/2000/svg" xmlns:xlink="http://www.w3.org/1999/xlink">
    <title>noun-business-report-5007960-0000DD</title>
    <g id="Page-1" stroke="none" stroke-width="1" fill="none" fill-rule="evenodd">
        <g id="Proposals----Super-Admin-View" transform="translate(-21.000000, -360.000000)" fill="#0000DD" fill-rule="nonzero">
            <g id="Group-2" transform="translate(0.000000, 231.000000)">
                <g id="noun-business-report-5007960-0000DD" transform="translate(21.000000, 129.000000)">
                    <path d="M0.546558105,38.45502 C0.607439294,38.516582 3.03835033,39.929898 2.97748555,39.8685185 C3.22057829,40.0529833 3.70676925,40.0529833 4.13227588,39.8069565 L20.7845089,30.0973799 C21.4531466,29.667104 22,28.7454269 22,27.9464425 L21.9391188,4.77816201 C21.9391188,4.65525367 21.8782376,4.5936972 21.8175697,4.53235086 C18.535793,2.32003388 17.9280749,1.82844475 14.8287832,0.0461714998 C14.7072341,-0.0153904999 14.6463584,-0.0153904999 14.5248092,0.0461714998 L1.21549106,7.85077102 C0.546853406,8.28104699 0,9.20272407 0,10.0017085 L0.0608811896,37.4715321 C0.0608811896,37.9631544 0.243092744,38.2702953 0.547066678,38.4547656 L0.546558105,38.45502 Z M21.0273118,4.7781233 L17.8671007,6.62172078 C17.5631268,6.80618559 17.3809152,6.74462912 17.3809152,6.37590963 L17.3809152,2.3813747 L21.0273118,4.7781233 Z M3.15942368,38.8852296 L3.09875576,11.415406 C3.09875576,10.8008919 3.52427333,10.063453 4.01046976,9.75605768 L16.7729345,2.32028825 L16.7729345,6.31482318 C16.7729345,7.11380758 17.4415722,7.5439066 18.1708012,7.11380758 L21.2703663,5.33158963 L21.330821,27.884969 C21.330821,28.499483 20.9053034,29.236922 20.419107,29.5443173 L3.70617318,39.2538938 C3.34153133,39.499705 3.15910103,39.3154558 3.15910103,38.8851743 L3.15942368,38.8852296 Z M1.51864472,8.40393874 L14.6458607,0.722098258 L16.46907,1.76693252 C6.19806931,7.78931409 3.76730592,9.20270195 3.58465688,9.32601396 C2.91601923,9.75628993 2.42986655,10.677967 2.42986655,11.415406 L2.49074774,38.8852296 L0.849750038,37.9019961 C0.728200932,37.8406497 0.667538484,37.7177469 0.667538484,37.4719358 L0.606657294,10.0021121 C0.606657294,9.4489223 1.03217487,8.6499379 1.51837129,8.40414334 L1.51864472,8.40393874 Z" id="Shape"></path>
                    <path d="M6.24436562,13 C6.30009023,13 6.35561962,13 6.41133922,12.9389141 L14.8668834,7.57287193 C14.9781374,7.51178606 15.033857,7.32896192 14.9781374,7.14592379 C14.9224128,7.02396604 14.7556344,6.96288565 14.5886608,7.02396604 L6.13311663,12.4512971 C6.02186263,12.512383 5.96614303,12.6952071 6.02186263,12.8782453 C6.07758724,13 6.13311663,13 6.24436562,13 L6.24436562,13 Z" id="Path"></path>
                    <path d="M6.26772818,17.9998623 C6.32886548,17.9998623 6.38978862,17.9998623 6.38978862,17.94512 L20.8539533,10.5133813 C20.9760138,10.4586389 21.0371456,10.2948004 20.9760138,10.1307701 C20.9148765,10.0214773 20.7318984,9.96673984 20.5487061,10.0214773 L6.14604666,17.5082878 C6.02398622,17.5630301 5.9628544,17.7268686 6.02398622,17.8908989 C6.08512352,17.9454494 6.14604666,18 6.2681016,18 L6.26772818,17.9998623 Z" id="Path"></path>
                    <path d="M6.26772818,21.9998623 C6.32886548,21.9998623 6.38978862,21.9998623 6.38978862,21.94512 L20.8539533,14.5133813 C20.9760138,14.4586389 21.0371456,14.2948004 20.9760138,14.1307701 C20.9148765,14.0214773 20.7318984,13.9667398 20.5487061,14.0214773 L6.14604666,21.5082878 C6.02398622,21.5630301 5.9628544,21.7268686 6.02398622,21.8908989 C6.08512352,21.9454494 6.14604666,22 6.2681016,22 L6.26772818,21.9998623 Z" id="Path"></path>
                    <polygon id="Path" points="17 21.301367 17 29 19 27.698633 19 20"></polygon>
                    <polygon id="Path" points="12 26.513489 12 32 14 30.486511 14 25"></polygon>
                    <polygon id="Path" points="6 24.4426371 6.04753682 34 8 32.5573629 8 23"></polygon>
                </g>
            </g>
        </g>
    </g>
</svg>