<?xml version="1.0" encoding="UTF-8"?>
<svg width="26px" height="24px" viewBox="0 0 26 24" version="1.1" xmlns="http://www.w3.org/2000/svg" xmlns:xlink="http://www.w3.org/1999/xlink">
    <title>noun-dove-1344084-0000DD</title>
    <g id="Page-1" stroke="none" stroke-width="1" fill="none" fill-rule="evenodd">
        <g id="Proposals----Super-Admin-View" transform="translate(-944.000000, -483.000000)" fill="#FFFFFF" fill-rule="nonzero">
            <g id="noun-dove-1344084-0000DD" transform="translate(944.000000, 483.000000)">
                <path d="M22.5103985,0 C22.2142779,1.20005629 22.5103985,2.39999349 22.8065192,2.99994224 C23.9913223,1.79988595 23.1501375,0.709116954 22.5103985,0 Z M18.3822561,0.318818792 C17.7915552,0.312150798 17.2530474,0.412635962 16.8828478,0.60011151 C18.0676509,1.50013388 20.9605565,2.05990873 21.6216692,2.10008263 C21.2143675,0.862631267 19.6818449,0.333383815 18.3820606,0.318814822 L18.3822561,0.318818792 Z M25.4723085,2.40000143 C24.8125642,3.29101246 24.6367888,3.85237521 24.5929622,4.81877185 C24.0908137,4.03351504 23.3469348,3.38843019 22.2142076,2.70007505 C22.9582428,3.60442445 23.7041155,4.35728808 24.2227625,5.64388498 C23.0387414,5.04111771 22.3481503,5.06795324 21.0294045,5.40011834 C21.9093763,5.92952458 23.3288725,6.2954961 24.3800456,6.06584589 C24.6140114,6.76845245 24.7797236,7.62877729 24.861395,8.71891113 C23.7660826,8.04218736 22.6445368,7.20016308 21.3256346,7.20016308 C19.5484495,7.20016308 17.4751516,9.00020782 16.5868132,10.2001053 C15.1058973,5.69999347 11.5516444,5.40027713 7.70108323,4.8000505 C10.0706503,6.60009523 9.77438112,8.40013997 9.77438112,9.00004903 C5.03555973,9.59999778 2.07325879,9.59999778 0,8.40010028 C0.296120625,12.6000988 5.96447976,16.1935191 9.75600602,15.8342565 C9.47973832,16.5005795 8.88596451,17.3998476 8.58969532,17.9999551 L2.96183179,22.1999537 L7.40469675,23.9999984 L9.77426383,20.3999089 C17.1790388,20.6999667 19.8446014,18.8999378 21.0295999,12.6001385 C21.2643282,11.4110784 23.3188639,10.0495723 24.8985753,9.53441746 C24.9182761,10.1784305 24.9196504,10.8969954 24.8800962,11.7001161 L25.7686301,10.5000598 C25.7409881,10.0798218 25.7058615,9.70813384 25.6760821,9.33751772 C25.7903166,9.32185585 25.8999691,9.3189095 26,9.3189095 C25.8889753,9.27394014 25.7773368,9.22323052 25.6667695,9.16896003 C25.5392502,7.64806831 25.3732448,6.51696662 25.0003006,5.60642441 C26.0667212,4.45412425 26.0454921,3.03537427 25.4723453,2.40000143 L25.4723085,2.40000143 Z M21.0849598,2.72812532 C20.4272094,2.74859416 19.8817034,3.11254031 18.9560675,3.30000792 C19.2425666,4.21582991 20.7306722,4.19864088 22.491828,3.1688195 C21.9146934,2.8313905 21.4795944,2.71587069 21.0849989,2.72825632 L21.0849598,2.72812532 Z M21.9272041,8.0999949 C22.2543278,8.0999949 22.5195861,8.3014281 22.5195861,8.55000608 C22.5195861,8.79858407 22.2543122,9.00001727 21.9272041,9.00001727 C21.6000804,9.00001727 21.3348221,8.79858407 21.3348221,8.55000608 C21.3348221,8.3014281 21.600096,8.0999949 21.9272041,8.0999949 Z" id="Shape"></path>
            </g>
        </g>
    </g>
</svg>