<?xml version="1.0" encoding="UTF-8"?>
<svg width="22px" height="22px" viewBox="0 0 22 22" version="1.1" xmlns="http://www.w3.org/2000/svg" xmlns:xlink="http://www.w3.org/1999/xlink">
    <title>vuesax/bold/setting-4</title>
    <g id="Page-1" stroke="none" stroke-width="1" fill="none" fill-rule="evenodd">
        <g id="Proposals----Super-Admin-View" transform="translate(-900.000000, -280.000000)">
            <g id="Cards" transform="translate(435.000000, 185.000000)">
                <g id="Group-238259" transform="translate(453.000000, 88.000000)">
                    <g id="setting-4" transform="translate(12.000000, 7.000000)">
                        <path d="M15.7200041,7.57999277 C15.3300041,7.57999277 15.0200043,7.26999295 15.0200043,6.87999296 C15.0200043,6.48999298 15.3300041,6.17999268 15.7200041,6.17999268 L21.3000031,6.17999268 C21.690003,6.17999268 22.0000038,6.48999298 22.0000038,6.87999296 C22.0000038,7.26999295 21.690003,7.57999277 21.3000031,7.57999277 L15.7200041,7.57999277 Z" id="Vector" fill="#ADA7A7" fill-rule="nonzero"></path>
                        <path d="M2.70000005,7.57999277 C2.31000006,7.57999277 2,7.26999295 2,6.87999296 C2,6.48999298 2.31000006,6.17999268 2.70000005,6.17999268 L6.42000008,6.17999268 C6.81000006,6.17999268 7.11999989,6.48999298 7.11999989,6.87999296 C7.11999989,7.26999295 6.80000007,7.57999277 6.42000008,7.57999277 L2.70000005,7.57999277 Z" id="Vector" fill="#ADA7A7" fill-rule="nonzero"></path>
                        <path d="M10.1400027,10.8299923 C7.95847797,10.8299923 6.19000244,9.06151748 6.19000244,6.87999272 C6.19000244,4.69846797 7.95847797,2.92999268 10.1400027,2.92999268 C12.3215275,2.92999268 14.0900025,4.69846797 14.0900025,6.87999272 C14.0900025,9.06151748 12.3215275,10.8299923 10.1400027,10.8299923 Z" id="Vector" fill="#ADA7A7"></path>
                        <path d="M17.5800056,17.8100033 C17.1900057,17.8100033 16.8800049,17.5000044 16.8800049,17.1100044 C16.8800049,16.7200044 17.1900057,16.4100037 17.5800056,16.4100037 L21.300005,16.4100037 C21.6900049,16.4100037 22.0000057,16.7200044 22.0000057,17.1100044 C22.0000057,17.5000044 21.6900049,17.8100033 21.300005,17.8100033 L17.5800056,17.8100033 Z" id="Vector" fill="#ADA7A7" fill-rule="nonzero"></path>
                        <path d="M2.70000005,17.8100033 C2.31000006,17.8100033 2,17.5000044 2,17.1100044 C2,16.7200044 2.31000006,16.4100037 2.70000005,16.4100037 L8.27999973,16.4100037 C8.66999972,16.4100037 8.97999954,16.7200044 8.97999954,17.1100044 C8.97999954,17.5000044 8.65999973,17.8100033 8.27999973,17.8100033 L2.70000005,17.8100033 Z" id="Vector" fill="#ADA7A7" fill-rule="nonzero"></path>
                        <path d="M13.8600035,21.070013 C11.6784787,21.070013 9.91000366,19.3015389 9.91000366,17.1200142 C9.91000366,14.9384894 11.6784787,13.1700134 13.8600035,13.1700134 C16.0415282,13.1700134 17.8100033,14.9384894 17.8100033,17.1200142 C17.8100033,19.3015389 16.0415282,21.070013 13.8600035,21.070013 Z" id="Vector" fill="#ADA7A7"></path>
                        <path d="M21,0 L21,21 L0,21 L0,0 L21,0 Z" id="Vector" opacity="0" transform="translate(10.500000, 10.500000) rotate(-180.000000) translate(-10.500000, -10.500000) "></path>
                    </g>
                </g>
            </g>
        </g>
    </g>
</svg>