<?xml version="1.0" encoding="UTF-8" standalone="no"?>
<svg
   xmlns:dc="http://purl.org/dc/elements/1.1/"
   xmlns:cc="http://creativecommons.org/ns#"
   xmlns:rdf="http://www.w3.org/1999/02/22-rdf-syntax-ns#"
   xmlns:svg="http://www.w3.org/2000/svg"
   xmlns="http://www.w3.org/2000/svg"
   viewBox="0 0 351 351.00002"
   height="316"
   width="316"
   version="1.1"
   id="svg5245">
  <metadata
     id="metadata5251">
    <rdf:RDF>
      <cc:Work
         rdf:about="">
        <dc:format>image/svg+xml</dc:format>
        <dc:type
           rdf:resource="http://purl.org/dc/dcmitype/StillImage" />
        <dc:title></dc:title>
      </cc:Work>
    </rdf:RDF>
  </metadata>
  <defs
     id="defs5249" />
  <g
     transform="matrix(0.34322158,0,0,0.34322158,-352.27456,-6.8455951)"
     id="g5805">
    <g
       id="g5795"
       transform="translate(1026.3765,18.608086)">
      <path
         style="fill:#f3f8ea"
         d="M 0,512 0,0 l 512,0 512,0 0,512 0,512 -512,0 -512,0 0,-512 z"
         id="path5799" />
      <path
         style="fill:#95c83c"
         d="M 0.66763657,1023.3343 C 0.30043646,1022.9671 0,792.56623 0,511.33236 L 0,-0.00193984 511.75,0.24903008 1023.5,0.5 l 0,511.5 0,511.5 -511.08236,0.251 c -281.0953,0.138 -511.3828033,-0.049 -511.75000343,-0.4167 z M 203.24557,870.76186 c 1.91711,-1.46225 4.42082,-4.64812 5.56381,-7.07971 1.14298,-2.43159 7.5733,-24.61732 14.2896,-49.30161 6.7163,-24.6843 12.58411,-45.30054 13.03957,-45.81387 0.45546,-0.51334 1.11143,-0.65002 1.4577,-0.30375 0.34627,0.34627 5.75654,19.66627 12.02282,42.93333 12.54883,46.59456 14.59043,53.27392 17.26212,56.47523 3.42127,4.09949 8.3096,6.32083 13.91847,6.32478 8.16709,0.006 13.46902,-3.60837 16.72488,-11.40075 2.00111,-4.78933 29.0857,-114.14594 30.0205,-121.2106 0.50984,-3.85305 0.2531,-6.00805 -1.04057,-8.73424 -4.81564,-10.14822 -20.1351,-10.27086 -24.9143,-0.19945 -0.96236,2.02804 -5.5533,20.64366 -10.20208,41.36806 -4.64878,20.7244 -9.00256,40.11895 -9.67508,43.09901 -0.67251,2.98006 -1.7093,5.58047 -2.30397,5.7787 -0.65233,0.21744 -4.74067,-13.23699 -10.30659,-33.91829 -15.19517,-56.46071 -16.26537,-59.27752 -23.70215,-62.38481 -4.30833,-1.80013 -13.73968,-1.7909 -17.19996,0.0168 -4.45215,2.32591 -8.10988,6.89939 -10.12158,12.65562 -1.04444,2.98851 -6.50343,22.75866 -12.13111,43.93366 -5.62767,21.175 -10.61062,38.92 -11.07322,39.43333 -0.4626,0.51334 -1.07342,0.70101 -1.35738,0.41705 -0.28395,-0.28395 -4.81455,-19.57422 -10.06799,-42.86726 -5.25345,-23.29305 -10.4935,-44.54021 -11.64456,-47.21593 -2.69409,-6.26259 -6.11888,-8.15463 -13.63283,-7.53152 -4.77117,0.39566 -5.94378,0.93915 -8.83643,4.09558 -5.40434,5.89716 -5.16678,7.45242 11.25841,73.70641 15.68281,63.25942 16.52606,65.74501 23.51024,69.29932 5.18875,2.6406 14.63353,1.86341 19.14168,-1.57512 z m 186.71954,1.39651 c 1.91196,-1.02539 4.34271,-3.57386 5.4844,-5.75 C 397.45377,862.58811 397.5,861.0797 397.5,799.5 c 0,-70.07633 0.16438,-68.29547 -6.68982,-72.47437 -5.0648,-3.08791 -12.76174,-2.77871 -16.86943,0.67768 -6.09183,5.12594 -5.9409,3.29582 -5.9392,72.01457 10e-4,57.77578 0.14098,63.05963 1.75,66.26219 3.69196,7.34839 12.82609,10.14025 20.21356,6.1783 z m 82.13701,-0.4283 c 6.50974,-4.34879 6.89459,-6.2618 6.89633,-34.28007 0.001,-18.14819 0.33218,-25.38063 1.20155,-26.25 1.71032,-1.71032 12.4497,-1.48885 18.8685,0.3891 7.86718,2.3017 15.27221,10.35503 25.9315,28.20176 C 543.70331,871.10559 546.23426,874 554.91348,874 c 6.16453,0 11.13582,-2.75428 13.48726,-7.47243 1.88174,-3.77572 1.87946,-3.87987 -0.22871,-10.42552 -4.17152,-12.95216 -15.9113,-31.10384 -27.34286,-42.27665 C 537.07313,810.15436 534,806.92676 534,806.65295 c 0,-0.27382 1.6875,-1.04458 3.75,-1.71282 12.57141,-4.07305 21.66248,-11.31604 26.09735,-20.79217 2.35385,-5.02954 2.64379,-6.8524 2.64796,-16.64796 0.004,-10.03375 -0.25013,-11.55182 -2.89625,-17.28203 C 557.95354,737.9925 546.17818,729.94082 531,727.92759 c -9.60373,-1.27383 -65.6863,-1.13768 -70.5,0.17116 -5.78146,1.57196 -9.21956,5.26147 -10.53179,11.30194 -0.76209,3.50805 -1.00798,23.66652 -0.78799,64.59931 0.29577,55.03304 0.45481,59.74731 2.11833,62.79422 3.87579,7.09891 13.97786,9.49572 20.80357,4.93585 z m 7.34196,-85.0152 c -0.27123,-0.70683 -0.36961,-9.14433 -0.21862,-18.75 L 479.5,750.5 l 19.41779,-0.27218 c 22.87098,-0.32058 28.01752,0.6566 32.93094,6.25267 6.60892,7.52715 6.73038,18.17569 0.28088,24.62519 -5.79425,5.79426 -11.1144,6.89432 -33.3425,6.89432 -14.43224,0 -18.96545,-0.30118 -19.34303,-1.28513 z m 358.74054,85.76062 c 19.62365,-4.08954 33.73635,-15.82985 38.35885,-31.91063 2.41353,-8.39618 1.64115,-23.18238 -1.56358,-29.93281 -5.31756,-11.20089 -18.33612,-19.71507 -38.47989,-25.16596 -32.78814,-8.87246 -35.0371,-9.75039 -39.95778,-15.59828 -1.71594,-2.03928 -2.54101,-4.21516 -2.53848,-6.69454 0.0128,-12.58983 18.06008,-20.60073 35.06476,-15.5647 6.53668,1.93588 11.01297,6.26858 16.36642,15.84144 5.67682,10.1511 12.66874,13.12118 20.09058,8.53423 11.4823,-7.09645 6.86325,-26.58568 -8.86892,-37.42084 -9.5632,-6.58642 -17.22613,-8.7648 -32.79728,-9.32343 -15.71526,-0.56379 -25.2536,1.01676 -35.58144,5.89602 -17.68956,8.35723 -26.06494,27.0372 -20.43419,45.57525 4.82647,15.8901 17.13261,23.98704 48.38934,31.83821 22.06877,5.54331 27.8738,8.67526 31.30636,16.89054 5.28017,12.63722 -6.18021,25.0391 -24.28497,26.28003 -16.14473,1.10658 -24.22153,-3.78468 -31.79805,-19.25671 -4.94381,-10.09576 -7.67081,-13.03771 -13.01431,-14.04016 -4.15229,-0.77898 -9.93459,1.87305 -12.87751,5.90622 -4.58691,6.2862 -0.8996,21.51811 7.53811,31.1392 11.1197,12.67924 25.43841,18.29089 47.08198,18.45193 6.03603,0.0449 13.86736,-0.58378 18,-1.44501 z m -120.98011,-1.51551 c 6.9423,-1.92811 10.4338,-9.70525 7.31127,-16.28549 C 721.42351,848.15802 720.3985,848 681.22132,848 c -28.52095,0 -35.18785,-0.25474 -36.1219,-1.3802 -0.79203,-0.95435 -1.06122,-7.04813 -0.87244,-19.75 L 644.5,808.5 677.04661,808 c 36.419,-0.55949 36.63568,-0.60202 39.63471,-7.77971 1.22236,-2.92553 1.29467,-4.35706 0.37512,-7.42626 -2.15325,-7.1869 -2.3834,-7.2323 -39.50996,-7.79403 L 644.5,784.5 644.22402,768.63377 c -0.18875,-10.85079 0.087,-16.30365 0.87244,-17.25 C 646.0342,750.25386 652.63697,750 681.08765,750 l 34.84276,0 3.53479,-3.10359 c 3.11695,-2.73672 3.5348,-3.66645 3.5348,-7.86514 0,-5.86075 -2.58977,-9.53559 -7.80365,-11.07324 -2.49556,-0.73598 -17.82773,-0.98745 -47.19635,-0.77407 -40.53058,0.29447 -43.7126,0.44475 -46.61446,2.20158 -1.71295,1.03705 -3.96295,3.28705 -5,5 -1.77923,2.93887 -1.9031,6.35633 -2.19694,60.61446 -0.17127,31.625 -0.0233,59.88724 0.32883,62.80498 0.78491,6.50386 4.75459,11.53591 10.25323,12.99721 5.11816,1.36019 87.59757,1.50099 92.43385,0.15779 z M 711.55516,649.5193 c -1.74683,-11.64876 -13.14449,-27.10391 -26.5706,-36.02956 -10.36853,-6.89299 -18.47527,-10.11484 -49.99084,-19.86779 -25.83801,-7.99594 -39.6819,-15.12371 -48.84344,-25.1479 C 580.74854,562.56369 577,555.76573 577,551.88006 c 0,-3.16295 4.35202,-10.03913 11.00017,-17.38024 5.05125,-5.57777 5.1736,-5.85536 4.51544,-10.24432 -1.34314,-8.95666 -2.77214,-9.41539 -7.80487,-2.5055 -8.12964,11.16193 -11.09261,21.1119 -10.53037,35.36218 0.34288,8.69028 0.73795,10.33796 4.11926,17.17956 2.79234,5.64993 5.39853,9.08713 10.2855,13.56515 7.90487,7.24338 14.53986,10.19845 42.83971,19.07983 48.09732,15.09445 67.65235,26.5353 77.3703,45.26622 2.95171,5.6893 3.88024,4.78647 2.76002,-2.68364 z M 200.44069,637.79945 c 14.73477,-10.40468 31.2089,-17.17458 61.77749,-25.3869 21.34903,-5.73546 35.55813,-10.50538 41.2754,-13.85592 17.86709,-10.47081 26.55444,-33.11693 20.40872,-53.20129 -2.5122,-8.20993 -7.19237,-17.33977 -10.46467,-20.41394 l -2.37644,-2.23254 -1.03059,2.71067 c -0.56683,1.49087 -1.02491,4.59387 -1.01794,6.89557 0.0108,3.55715 0.81942,5.18708 5.39094,10.86591 2.95806,3.67456 6.14049,8.67679 7.07206,11.11608 1.67787,4.39345 1.66857,4.48557 -0.99176,9.81898 -1.47703,2.96116 -4.77765,7.54971 -7.33471,10.19676 -10.04523,10.39881 -22.5439,15.71051 -58.13746,24.70735 -27.24472,6.88654 -36.17138,10.05189 -46.60649,16.52641 -13.80156,8.56324 -24.66445,22.94241 -26.09763,34.54535 l -0.54448,4.40806 5.80912,-5.85787 c 3.19502,-3.22183 8.98582,-8.10103 12.86844,-10.84268 z M 134.43249,634.75 c 9.45061,-20.00355 24.79025,-41.14429 43.00222,-59.26468 C 202.07213,550.9718 225.29387,539 248.20542,539 c 8.10064,0 9.1023,-0.21681 11.34003,-2.45455 3.07149,-3.07148 3.08391,-4.70225 0.0625,-8.2148 -2.14072,-2.48873 -3.16501,-2.81862 -9.75,-3.14015 -21.5684,-1.05312 -48.74812,10.89822 -72.86223,32.03865 -12.87228,11.28491 -21.56291,20.88349 -37.41499,41.32397 l -2.91924,3.76421 -0.89563,-2.40866 c -1.4801,-3.98052 0.83953,-29.57702 4.34162,-47.90867 5.77256,-30.21641 14.91336,-56.84811 31.91797,-92.99289 C 176.41147,449.68432 180,441.59385 180,441.02829 c 0,-2.2854 -2.48749,-0.56606 -13.73534,9.49382 C 155.07347,460.53132 136.65847,474 134.1646,474 133.52407,474 133,473.60931 133,473.13179 c 0,-1.7006 7.19622,-13.77016 13.33147,-22.35964 18.23141,-25.52436 39.24345,-44.43107 74.16853,-66.7371 20.78712,-13.27637 27.27623,-18.59216 25.21368,-20.65471 -0.29338,-0.29337 -3.83647,-1.39125 -7.87354,-2.43973 -18.08289,-4.69637 -51.49059,-0.80558 -83.15314,9.68434 -5.94714,1.97032 -11.06389,3.33149 -11.37055,3.02483 -1.78922,-1.78921 17.9542,-20.62479 35.47017,-33.83918 15.19508,-11.46346 28.47602,-19.35465 51.21338,-30.42964 11.825,-5.75976 22.59426,-11.01424 23.93168,-11.67663 1.33743,-0.66238 2.46243,-1.65433 2.5,-2.20433 0.0861,-1.26027 -16.6237,-2.18533 -43.43168,-2.4044 l -20.5,-0.16753 3,-2.45961 c 4.89372,-4.01223 39.93785,-20.93283 54.5,-26.31461 34.6149,-12.79275 57.00103,-15.73746 80.74632,-10.6215 6.46452,1.39279 12.99118,2.79904 14.50368,3.125 5.30891,1.14412 2.82411,-2.0976 -10.84553,-14.14934 -21.07181,-18.57779 -28.54985,-22.84735 -49.32612,-28.16256 -1.88191,-0.48145 -3.58184,-1.35591 -3.77762,-1.94325 -0.19762,-0.59287 4.21569,-2.45377 9.92166,-4.18351 33.43744,-10.13646 80.78216,-15.1401 130.43129,-13.78468 16.02455,0.43747 25.37237,0.33286 25.75623,-0.28824 0.83748,-1.35508 -3.13323,-3.65008 -29.69738,-17.16452 -12.76689,-6.49512 -23.08662,-12.1855 -22.93273,-12.64528 0.15389,-0.45978 4.87889,-0.7371 10.5,-0.61626 47.13599,1.01331 98.66268,14.37515 144.8382,37.55927 19.92531,10.00425 33.87986,18.52924 45.49168,27.79141 5.43968,4.33895 10.22782,7.89814 10.64032,7.90931 1.5769,0.0427 0.61076,-3.99115 -3.19773,-13.35124 -4.58263,-11.26268 -7.99081,-17.41271 -15.03386,-27.12846 -3.87749,-5.34891 -4.70355,-7.07827 -3.5022,-7.33184 2.57909,-0.54436 23.12865,13.83612 36.59448,25.60863 18.68988,16.33963 29.60766,28.7122 65.58858,74.32829 11.82463,14.99109 23.19143,26.91825 23.24882,24.39492 0.025,-1.1 -2.18248,-9.05503 -4.90554,-17.67784 -5.03205,-15.93443 -8.73385,-32.4642 -7.53806,-33.65999 1.06367,-1.06367 3.22735,2.46481 10.93824,17.83783 15.92076,31.74086 30.88206,73.82345 48.13893,135.40343 6.05004,21.58916 6.41811,23.51148 6.41432,33.5 -0.0177,46.65581 -27.57733,92.89986 -75.48903,126.66789 -6.97365,4.91501 -6.98418,4.92954 -3.79661,5.23856 1.75804,0.17044 12.77991,-2.1441 24.49305,-5.14341 C 745.23287,566.18456 757.2615,564 772.44137,564 c 23.60901,0 43.38786,7.28008 94.75217,34.87581 34.33764,18.44806 40.24483,20.54684 47.38279,16.83469 6.46319,-3.36123 9.42367,-8.66752 9.42367,-16.89077 0,-4.24242 -0.43981,-5.44596 -2.75,-7.52544 -1.5125,-1.36144 -12.63784,-7.8627 -24.72298,-14.44723 C 857.64165,555.66055 844.76766,545.78548 825.74951,522.55677 804.23485,496.27881 782.94655,458.74563 776.51295,435.74829 763.2934,388.49406 758.82255,373.44773 751.0338,350 c -10.73765,-32.32531 -18.67384,-52.45667 -28.97518,-73.5 -9.55265,-19.51391 -18.06395,-32.64686 -27.40429,-42.28482 -7.95939,-8.21302 -17.37555,-15.82729 -18.35792,-14.84492 -0.359,0.35899 0.85762,9.19238 2.70359,19.62974 1.84597,10.43736 3.02736,19.30597 2.62532,19.70802 -0.40205,0.40204 -1.94217,-0.83029 -3.4225,-2.73852 C 676.72249,254.06128 670.28205,246.425 663.89072,239 633.91044,204.17098 603.23878,179.95017 574.78468,168.6347 568.82435,166.26442 543.97665,159 541.82954,159 c -2.11122,0 -0.1799,2.98148 7.92046,12.22727 12.29045,14.02836 17.58723,20.76884 16.8779,21.47816 -0.33544,0.33545 -6.45595,-2.17515 -13.60113,-5.57911 C 502.1289,162.87861 448.33814,150.08654 397,150.02135 c -22.54908,-0.0286 -56,3.20676 -56,5.41636 0,0.65492 10.0125,5.6044 22.25,10.99884 23.74425,10.46678 27.10183,12.18516 26.31049,13.46558 -0.27678,0.44784 -6.92862,1.12694 -14.78187,1.50911 -48.20854,2.34601 -88.19915,10.98112 -116.27862,25.10785 -12.80179,6.44056 -32.5,18.95763 -32.5,20.65187 0,0.68447 3.54686,0.7423 10.75,0.17527 18.5628,-1.46125 40.82205,-0.96672 48.75,1.08307 8.74061,2.2599 17.72592,6.39135 17.21936,7.91748 -0.21052,0.63427 -3.44068,1.49496 -7.17811,1.91265 -30.85446,3.4482 -70.94049,19.0027 -114.00952,44.23885 -17.26494,10.11633 -36.98471,22.8076 -38.00584,24.45983 -0.55572,0.89917 6.14987,1.00764 28.37321,0.45899 17.13119,-0.42293 29.08677,-0.34798 29.06656,0.18223 -0.0189,0.49537 -5.84552,4.66768 -12.94807,9.27181 -17.87356,11.58627 -32.48641,23.33408 -46.03175,37.00659 -13.44127,13.56747 -21.6991,24.27532 -32.31659,41.90459 C 102.54477,407.6118 100.9855,411 102.66599,411 c 0.36629,0 6.4597,-3.41282 13.54091,-7.58404 16.86757,-9.93593 26.99507,-14.60671 43.31689,-19.97767 C 178.91635,377.05686 209,371.21857 209,373.83653 c 0,0.61153 -3.9375,3.76481 -8.75,7.00727 -28.60991,19.27617 -51.83847,41.90681 -68.37271,66.61276 -3.32874,4.97389 -9.34585,15.79344 -13.37136,24.04344 -7.48899,15.34814 -15.52272,36.81655 -14.25251,38.08675 0.3897,0.3897 9.3339,-5.00609 19.876,-11.99066 10.54211,-6.98456 19.53365,-12.33302 19.98122,-11.88545 0.44757,0.44757 -0.34724,3.95827 -1.76623,7.80156 -14.13832,38.29297 -21.19175,77.10198 -20.0759,110.46066 0.69107,20.65991 3.87822,42.02714 6.26878,42.02714 0.3191,0 2.97193,-5.0625 5.8952,-11.25 z m 227.70529,-80.22697 c 30.19135,-14.63443 61.01949,-21.4764 96.86222,-21.4975 31.12405,-0.0183 58.41733,5.57598 82.68402,16.94773 9.22171,4.32145 13.25019,4.94967 15.74455,2.45531 2.09104,-2.09104 1.99681,-6.86003 -0.17857,-9.03696 -2.11084,-2.11234 -13.16382,-7.30401 -24.26203,-11.39605 -9.28382,-3.42305 -23.40199,-7.11432 -36.48797,-9.53997 -11.77919,-2.18342 -48.6571,-3.09861 -63.24283,-1.56948 -25.32802,2.65532 -54.04834,10.56199 -74.75717,20.58056 -14.17323,6.85676 -16.5,8.69691 -16.5,13.04921 0,3.31 2.74636,6.48412 5.61029,6.48412 0.6409,0 7.17827,-2.91464 14.52749,-6.47697 z m 373.48078,-86.14632 c 6.37635,-3.02577 10.10765,-11.16273 8.23268,-17.95329 -1.39061,-5.03641 -6.33932,-10.20849 -10.9574,-11.45201 C 722.56642,436.19053 713,443.52122 713,454.21594 c 0,11.66408 12.02064,19.18982 22.61856,14.16077 z"
         id="path5797" />
    </g>
    <circle
       style="opacity:1;fill:#95c83c;fill-opacity:1;fill-rule:evenodd;stroke:none;stroke-width:8.28499985;stroke-linecap:butt;stroke-linejoin:miter;stroke-miterlimit:4;stroke-dasharray:none;stroke-dashoffset:0;stroke-opacity:1"
       id="path5803"
       cx="1752.3783"
       cy="470.87473"
       r="7.3826742" />
  </g>
</svg>
