<?xml version="1.0" encoding="UTF-8"?>
<svg width="39px" height="30px" viewBox="0 0 39 30" version="1.1" xmlns="http://www.w3.org/2000/svg" xmlns:xlink="http://www.w3.org/1999/xlink">
    <title>feather icon/upload-cloud</title>
    <defs>
        <path d="M37.8194278,23.2090907 C37.0281071,25.4432578 35.4454655,27.379536 33.2297674,28.5710918 C32.9132391,28.7200362 32.7549749,28.7200362 32.4384466,28.7200362 C31.80539,28.7200362 31.3305976,28.4221473 31.0140693,27.9753139 C30.5392768,27.2305915 30.8558051,26.3369246 31.6471259,25.8900912 C33.0715032,25.1453688 34.1793523,23.8048686 34.6541448,22.3154238 C35.1289372,20.8259791 34.9706731,19.1875898 34.1793523,17.8470896 C33.0715032,15.9108114 31.0140693,14.7192556 28.640107,14.7192556 L26.582673,14.7192556 C25.7913522,14.7192556 25.1582956,14.2724222 25.0000315,13.6766443 C23.41739,8.1656987 17.4033522,4.73997578 11.5475785,6.22942053 C8.69882378,6.82519843 6.3248615,8.46358765 4.90048413,10.8466992 C3.31784261,13.3787553 2.84305015,16.0597559 3.63437091,18.8897009 C4.10916337,20.5280901 4.90048413,22.0175349 6.00833319,23.2090907 C6.6413898,23.8048686 6.48312565,24.6985354 5.85006904,25.2943133 C5.21701243,25.8900912 4.26742752,25.7411467 3.63437091,25.1453688 C2.20999354,23.5069796 1.10214447,21.7196459 0.469087863,19.6344233 C-0.480497051,16.2087003 -0.00570459379,12.6340329 2.05172939,9.50619897 C4.10916337,6.378365 7.11618226,4.29314235 10.7562578,3.3994755 C17.8781446,1.6121418 25.3165598,5.48469815 27.6905221,11.8893106 L28.640107,11.8893106 C32.1219183,11.8893106 35.2872014,13.6766443 37.0281071,16.5065893 C38.1359561,18.4428675 38.4524844,20.9749235 37.8194278,23.2090907 Z M20.2521069,16.6555338 C20.0938428,16.5065893 19.9355786,16.3576448 19.7773144,16.3576448 C19.4607861,16.2087003 18.9859937,16.2087003 18.5112012,16.3576448 C18.3529371,16.5065893 18.1946729,16.5065893 18.0364088,16.6555338 L11.7058427,22.6133128 C11.0727861,23.2090907 11.0727861,24.1027575 11.7058427,24.6985354 C12.3388993,25.2943133 13.2884842,25.2943133 13.9215408,24.6985354 L17.5616163,21.2728125 L17.5616163,31.1031478 C17.5616163,31.9968147 18.1946729,32.5925926 19.1442578,32.5925926 C20.0938428,32.5925926 20.7268994,31.9968147 20.7268994,31.1031478 L20.7268994,21.2728125 L24.3669749,24.6985354 C24.6835032,24.9964244 25.1582956,25.1453688 25.4748239,25.1453688 C25.7913522,25.1453688 26.2661447,24.9964244 26.582673,24.6985354 C27.2157296,24.1027575 27.2157296,23.2090907 26.582673,22.6133128 L20.2521069,16.6555338 Z" id="path-1"></path>
    </defs>
    <g id="Page-1" stroke="none" stroke-width="1" fill="none" fill-rule="evenodd">
        <g id="Expert-Sign-Up-Step-2" transform="translate(-1026.000000, -395.000000)">
            <g id="File-Upoader/Rest" transform="translate(871.000000, 364.000000)">
                <g id="feather-icon/upload-cloud" transform="translate(155.428962, 28.444444)">
                    <mask id="mask-2" fill="white">
                        <use xlink:href="#path-1"></use>
                    </mask>
                    <use id="Mask" fill="#000000" fill-rule="nonzero" xlink:href="#path-1"></use>
                    <g id="Group" mask="url(#mask-2)" fill="#212121">
                        <g id="Icon-Color">
                            <rect id="Shape" x="0" y="0" width="38.1420765" height="35.5555556"></rect>
                        </g>
                    </g>
                </g>
            </g>
        </g>
    </g>
</svg>