<?xml version="1.0" encoding="UTF-8"?>
<svg width="1200pt" height="1200pt" version="1.1" viewBox="0 0 1200 1200" xmlns="http://www.w3.org/2000/svg">
 <path d="m451.88 666.17c-8.2695 5.1055-17.789 7.8242-27.508 7.8594-31.539-2.9258-59.703-20.953-75.574-48.367-12.145-17.977-18.859-39.066-19.344-60.758-1.2031-19.484 7.707-38.211 23.578-49.574 16.461-9.9961 36.914-10.797 54.109-2.1172 19.914 9.1953 36.797 23.875 48.668 42.32 12.277 18.141 19 39.465 19.344 61.363 1.1016 19.309-7.6602 37.859-23.273 49.273zm279.01 42.32c-12.25-9.6758-22.691-21.445-30.832-34.762-3.9297-8.1602-6.9531-16.324-9.9766-24.484-12.695-33.855-26.902-72.246-90.082-72.246-63.176 0-77.387 38.391-90.082 72.246-3.0234 8.1602-6.0469 16.324-9.9766 24.484h0.003906c-8.1445 13.316-18.582 25.086-30.832 34.762-28.414 25.996-67.41 61.668-22.672 110.94 24.484 27.207 53.504 18.137 84.336 8.4648 22.219-8.0938 45.59-12.582 69.223-13.301 23.637 0.71875 47.008 5.207 69.227 13.301 14.453 5.4258 29.629 8.6875 45.039 9.6719 15.176 0.25 29.641-6.4258 39.297-18.137 44.68-49.27 5.6836-84.941-22.73-110.94zm116.08-193.16c-16.461-9.9961-36.914-10.797-54.109-2.1172-19.914 9.1953-36.797 23.875-48.668 42.32-12.277 18.141-19 39.465-19.348 61.363-1.0977 19.309 7.6641 37.859 23.277 49.273 8.2695 5.1055 17.789 7.8242 27.508 7.8594 31.539-2.9258 59.703-20.953 75.57-48.367 27.449-42.316 25.637-90.988-4.2891-110.3zm-318.61 37.18c3.5898 0.11328 7.168-0.39844 10.582-1.5117 32.949-8.4648 47.762-56.527 34.16-109.12-13.602-52.598-50.785-87.059-83.734-77.988h-0.003907c-9.0391 3.0508-17.09 8.4766-23.312 15.711-6.2227 7.2305-10.387 16.004-12.055 25.398-5.3633 22.426-4.8438 45.852 1.5117 68.016 12.336 47.156 42.867 79.5 72.793 79.5zm132.7-1.5117c3.418 1.0938 6.9961 1.6055 10.582 1.5117 16.73-1.1445 32.254-9.125 42.922-22.066 14.559-16.387 24.836-36.117 29.93-57.434 6.3555-22.164 6.875-45.59 1.5078-68.016-1.6641-9.3945-5.8281-18.168-12.051-25.398-6.2227-7.2344-14.273-12.66-23.316-15.711-33.25-9.0703-69.828 25.391-83.734 77.988-13.902 52.598 1.1523 100.69 34.102 109.12z" fill="#00d"/>
</svg>
