<?xml version="1.0" encoding="UTF-8"?>
<svg width="1200pt" height="1200pt" version="1.1" viewBox="0 0 1200 1200" xmlns="http://www.w3.org/2000/svg">
 <g fill="#00d">
  <path d="m600 670.28c-20.402 0-40.809-3.0234-60.457-8.3125l-169.28-50.633v115.62c0 21.16 13.602 39.297 34.008 45.344l74.059 21.914c81.617 24.184 167.77 24.184 249.39 0l74.059-21.914c20.402-6.0469 34.008-24.184 34.008-45.344l0.003906-117.14-175.33 52.145c-19.648 6.0469-40.051 8.3125-60.457 8.3125z"/>
  <path d="m943.85 482.87-298.51-88.418c-29.473-9.0703-61.211-9.0703-91.441 0l-297.75 88.418c-20.402 6.0469-20.402 35.52 0 41.562l298.51 88.418c29.473 9.0703 61.211 9.0703 91.441 0l255.43-75.57v67.258c-5.2891 3.0234-9.0703 8.3125-9.0703 14.359v18.137c0 6.8008 3.7773 12.848 9.8242 15.113l-15.871 37.031c-2.2656 5.2891 0.75391 10.578 6.8008 11.336l16.625 1.5117h9.8242l16.625-1.5117c5.2891-0.75391 8.3125-6.0469 6.8008-11.336l-15.871-37.031c6.0469-3.0234 9.8242-8.3125 9.8242-15.113v-18.137c0-6.0469-3.7773-11.336-9.0703-14.359v-74.816l16.625-5.2891c19.66-6.8008 19.66-35.52-0.74609-41.562z"/>
 </g>
</svg>
