<?xml version="1.0" encoding="UTF-8"?>
<svg width="39px" height="52px" viewBox="0 0 39 52" version="1.1" xmlns="http://www.w3.org/2000/svg" xmlns:xlink="http://www.w3.org/1999/xlink">
    <title>noun-tree-5038038-FFFFFF</title>
    <g id="Page-1" stroke="none" stroke-width="1" fill="none" fill-rule="evenodd">
        <g id="Donate" transform="translate(-520.000000, -416.000000)" fill="#0000DD" fill-rule="nonzero">
            <g id="noun-tree-5038038-FFFFFF" transform="translate(520.000000, 416.000000)">
                <path d="M39,12.9759571 C38.9779947,14.3851565 38.4932813,15.7479022 37.6206145,16.8544578 C36.7479169,17.9607048 35.5355239,18.7495695 34.1703374,19.0992071 C33.7974596,18.7983845 33.4079983,18.5186589 33.0040911,18.2609565 C32.1564732,17.7289378 31.2355453,17.3237794 30.2706314,17.0582524 C31.0558972,17.5869607 31.7615253,18.2250744 32.366217,18.953364 C32.9461839,19.6587045 33.4417904,20.4291574 33.8423716,21.2496599 C33.8857789,21.3280294 33.9376283,21.4015837 33.9973104,21.468494 C33.4095031,23.4675478 31.9185475,25.0756803 29.9695048,25.8129983 C28.0203849,26.550594 25.8382936,26.3317599 24.0742236,25.2225034 L25.878344,23.9468778 C26.3329123,23.6077733 26.6424888,23.1097846 26.7455627,22.5521855 C26.848351,21.9948411 26.7374237,21.4190849 26.4341727,20.9398089 C26.0971628,20.396933 25.5428003,20.0250099 24.9124886,19.9194473 C24.2692204,19.7994778 23.6051785,19.9622503 23.0900021,20.3658661 L21.3223823,21.778075 L21.3223823,20.5753709 C21.3223823,19.5987622 20.8014955,18.6962326 19.9556525,18.2082369 C19.1098095,17.7199248 18.0677272,17.7199248 17.2218841,18.2082369 C16.3760411,18.696248 15.8551543,19.5987622 15.8551543,20.5753709 L15.8551543,24.9671777 L11.8457148,21.8054688 C11.3721554,21.4310918 10.7689839,21.2601853 10.1693853,21.3304215 C9.56952429,21.4003529 9.0221224,21.7057013 8.64739257,22.1789352 C8.27300227,22.6527787 8.10239062,23.2556277 8.17232836,23.8555136 C8.24226223,24.4550523 8.54762152,25.002427 9.02118095,25.3774521 L10.6978192,26.6986055 C10.0054101,26.9014663 9.28710332,27.0027463 8.56542427,26.9991272 C6.6702451,27.028667 4.84050475,26.3073524 3.4750096,24.9931285 C2.10951445,23.67892 1.31884684,21.8778733 1.2757097,19.9830704 C1.2757097,19.3060651 1.38031149,18.6329799 1.5855872,17.9876434 C1.82583563,17.9336876 2.06306678,17.8667711 2.29637777,17.7871901 C2.88568983,17.6009045 3.45868848,17.3660971 4.00943948,17.0857696 C5.07474948,16.541389 6.05918699,15.8514276 6.93427685,15.0354779 C5.90515883,15.5708147 4.80759242,15.9632407 3.67213632,16.2016826 C3.1856126,16.3035644 2.69217459,16.3707834 2.19598166,16.4021358 C0.810577059,15.2955802 0.00239222095,13.619619 0,11.846352 C0.0358709673,10.2168446 0.717427062,8.667821 1.89456182,7.54012194 C3.07169658,6.41242287 4.64854831,5.79849282 6.27842246,5.83252288 C7.06669785,5.83161858 7.84833675,5.97690756 8.58382894,6.26085407 C8.75082912,4.52616987 9.56595139,2.91803736 10.8666251,1.75785155 C12.1670672,0.597357074 13.8572099,-0.0299226362 15.6001358,0.00109796209 C18.0435966,-0.016988127 20.3240005,1.2264116 21.6322367,3.2905932 C22.5917488,2.80228114 23.6536634,2.54937838 24.7303943,2.55239556 C26.0651764,2.53822871 27.3737213,2.92617062 28.4851009,3.66527881 C29.5967891,4.40468024 30.4601493,5.46146405 30.9629016,6.69827537 C31.4156641,6.60634019 31.8768843,6.56051922 32.3386601,6.56173072 C34.0740235,6.52495665 35.7521279,7.18116268 37.0022563,8.38507828 C38.2523075,9.58901702 38.970977,11.241134 39,12.9761268 L39,12.9759571 Z M30.0811963,50.1861819 L19.9186948,50.1861819 L19.9186948,28.8056077 C19.9232542,27.731893 20.4408964,26.7230913 21.3153773,26.0844857 L22.8774145,24.9324912 L24.8710856,23.4629993 C25.255292,23.1728266 25.4534763,22.702603 25.3911629,22.2291146 C25.3285468,21.7558873 25.0151659,21.351368 24.5686695,21.1680752 C24.1221497,20.9847286 23.6106242,21.0504482 23.2266902,21.3403212 L20.5803935,23.3811244 L20.5803935,23.3814244 C20.4563736,23.4732475 20.2907155,23.4888497 20.1515063,23.4219348 C20.0119859,23.3550175 19.9223209,23.2169787 19.9186715,23.0639377 L19.9186715,20.8142606 C19.9186715,20.3332361 19.725047,19.8716778 19.380658,19.5314415 C19.0359656,19.1911515 18.5684361,19 18.0812429,19 C17.5936919,19 17.1262324,19.1911515 16.7818278,19.5314415 C16.4371354,19.8717316 16.243511,20.3332899 16.243511,20.8142606 L16.243511,25.3496433 C16.2444229,25.5179869 16.1930533,25.6827277 16.0963959,25.8213649 C15.9659953,26.0041123 15.7653832,26.1259413 15.5413646,26.1583517 C15.317346,26.1910602 15.0893745,26.1316444 14.9112506,25.9939106 L10.7305407,22.7464939 C10.4420844,22.5244377 10.077028,22.4239109 9.71382365,22.4662234 C9.35089162,22.5088348 9.0195754,22.6909837 8.79157275,22.9733591 C8.59794831,23.2125231 8.49399665,23.5105007 8.49764613,23.8168439 C8.4967343,24.2339541 8.6897532,24.6285252 9.0213729,24.8872554 L11.1439039,26.5382733 L13.9922835,28.7516144 L13.9922835,28.7513143 C15.4181462,29.8778045 16.2464757,31.5837488 16.2434409,33.38664 L16.2434409,50.1856625 L7.9189049,50.1856625 C7.4112934,50.1856625 7,50.5919718 7,51.0928313 C7,51.5939596 7.41126227,52 7.9189049,52 L30.0810951,52 C30.5887066,52 31,51.5939903 31,51.0928313 C31,50.5920025 30.5887377,50.1856625 30.0810951,50.1856625 L30.0811963,50.1861819 Z" id="Shape"></path>
            </g>
        </g>
    </g>
</svg>