<?xml version="1.0" encoding="UTF-8"?>
<svg width="1200pt" height="1200pt" version="1.1" viewBox="0 0 1200 1200" xmlns="http://www.w3.org/2000/svg">
 <path d="m820.42 411.07h-66.125c-15.742-72.422-78.719-125.95-154.29-125.95-75.57 0-138.55 53.531-154.29 125.95h-66.125c-53.531 0-94.465 40.934-94.465 94.465v314.88c0 50.383 40.934 94.465 94.465 94.465h440.83c53.531 0 94.465-44.082 94.465-94.465v-314.88c0-53.531-40.934-94.465-94.465-94.465zm-220.42-62.977c40.934 0 75.57 25.191 88.168 62.977h-176.33c12.594-37.785 47.23-62.977 88.164-62.977zm94.465 346.37h-62.977v62.977c0 15.742-15.742 31.488-31.488 31.488-15.742 0-31.488-15.742-31.488-31.488v-62.977h-62.973c-15.742 0-31.488-15.742-31.488-31.488 0-15.742 15.742-31.488 31.488-31.488h62.977v-62.977c0-15.742 15.742-31.488 31.488-31.488 15.742 0 31.488 15.742 31.488 31.488v62.977h62.977c15.742 0 31.488 15.742 31.488 31.488-0.003906 15.746-15.746 31.488-31.492 31.488z" fill="#00d"/>
</svg>
