<?xml version="1.0" encoding="UTF-8"?>
<svg width="1200pt" height="1200pt" version="1.1" viewBox="0 0 1200 1200" xmlns="http://www.w3.org/2000/svg">
 <g fill="#00d">
  <path d="m727.02 629.44v0.023438c-4.1055 0.023437-8.207 0.1875-12.297 0.51953 69.188 5.6016 122.48 62.93 122.54 131.8 0 73.102-59.715 132.36-133.38 132.36-69.18-0.046875-126.85-52.551-132.81-120.95-0.33984 3.8555-0.53516 7.6992-0.58984 11.555-0.007813 85.781 70.07 155.33 156.52 155.33h0.015626c86.445 0 156.54-69.535 156.54-155.31v-0.015625c-0.007812-85.777-70.094-155.31-156.54-155.31z"/>
  <path d="m487.63 647.39-86.812 32.172-27.938-75.383-43.398 16.09 27.938 75.383-83.387 30.902 15.66 42.258 83.391-30.902 72.391 195.33 43.41-16.09-72.406-195.33 86.816-32.18z"/>
  <path d="m850.76 444.42c-10.941 0-19.801 8.8633-19.801 19.801v0.007813c0 10.926 8.8555 19.801 19.793 19.801 10.934 0 19.793-8.8633 19.793-19.801 0.007813-10.938-8.8477-19.801-19.785-19.809z"/>
  <path d="m785.89 325.04c-77.371 0-140.09 62.715-140.09 140.09 0 77.363 62.723 140.08 140.09 140.08 77.355 0 140.08-62.715 140.08-140.08 0.003906-77.363-62.707-140.09-140.08-140.09zm-45.078 139.2c0 10.926-8.8633 19.801-19.801 19.801-10.926 0-19.793-8.8633-19.793-19.801 0-10.934 8.8477-19.801 19.785-19.809h0.007813c10.938 0 19.801 8.8672 19.801 19.809v0zm109.63 68.195c-39.734-0.88281-54.836-21.855-63.957-48.977-0.51953-52.891-22.242-84.09-69.434-84.09-20.496 0-38.77 12-51.57 30.789 15.559-53.574 64.621-90.438 120.41-90.48 69.293 0 125.47 56.172 125.47 125.47-0.03125 7.5508-0.75 15.07-2.1328 22.488-15.988 37.027-38.836 44.758-58.785 44.797z"/>
  <path d="m291.38 536.14h104.98l52.039 90.148 52.047-90.148h109.86l-54.93-95.137 52.492-90.926-104.99-0.003907-52.039-90.141-52.047 90.148h-109.86l54.926 95.137zm36.918-21.32 27.879-48.289 12.5 21.652 15.371 26.641zm120.11 68.824-27.426-47.512h54.875zm124.98-68.824h-60.625l15.387-26.641 14.934-25.867zm-2.4336-143.41-27.879 48.281-12.5-21.645-15.379-26.633 55.758 0.003906zm-120.11-68.832 27.426 47.512h-54.852zm-39.746 68.832h79.477l21.531 37.285 18.66 32.309-21.094 36.523-21.531 37.293h-79.477l-21.531-37.293-18.652-32.301 21.086-36.523zm-85.234 0h60.625l-15.387 26.633-14.934 25.859z"/>
  <path d="m671.9 759.74 25.211 41.344 3.2578-48.328 47.121-11.199-44.957-18.031 3.9141-48.27-31.039 37.184-44.707-18.637 25.77 41.004-31.527 36.758z"/>
 </g>
</svg>
