<?xml version="1.0" encoding="UTF-8"?>
<svg width="1200pt" height="1200pt" version="1.1" viewBox="0 0 1200 1200" xmlns="http://www.w3.org/2000/svg">
 <path d="m843.26 297.71c-7.5742 30.23 0 60.457 7.5742 75.57 30.305-30.23 8.7891-57.707-7.5742-75.57zm-105.59 8.0312c-15.109-0.16797-28.883 2.3633-38.352 7.0859 30.305 22.672 104.3 36.773 121.21 37.785-10.418-31.172-49.617-44.504-82.863-44.871zm181.35 52.426c-16.875 22.445-21.371 36.586-22.492 60.93-12.844-19.781-31.871-36.031-60.844-53.371 19.031 22.781 38.109 41.746 51.375 74.156-30.285-15.184-47.949-14.508-81.68-6.1406 22.508 13.336 58.816 22.555 85.703 16.77 5.9844 17.699 10.223 39.371 12.312 66.832-28.016-17.047-56.703-38.258-90.438-38.258-45.457 0-98.488 45.344-121.21 75.57-37.879-113.36-128.79-120.91-227.28-136.03 60.609 45.344 53.031 90.688 53.031 105.8-121.21 15.113-196.98 15.113-250.01-15.113 7.5742 105.8 152.56 196.32 249.54 187.27-7.0664 16.785-22.254 39.438-29.832 54.555l-143.95 105.8 113.64 45.344 60.609-90.688c189.4 7.5586 257.58-37.785 287.89-196.48 6.0039-29.953 58.555-64.25 98.961-77.227 0.50391 16.223 0.53906 34.324-0.47266 54.555l22.727-30.23c-0.70703-10.586-1.6055-19.949-2.3672-29.285 2.9219-0.39453 5.7266-0.46875 8.2852-0.46875-2.8398-1.1328-5.6953-2.4102-8.5234-3.7773-3.2617-38.312-7.5078-66.805-17.047-89.742 27.277-29.027 26.734-64.766 12.074-80.766zm-112.22 8.2656c-16.824 0.51562-30.777 9.6836-54.453 14.406 7.3281 23.07 45.391 22.637 90.438-3.3047-14.762-8.5-25.891-11.41-35.984-11.098zm21.543 135.32c8.3672 0 15.152 5.0742 15.152 11.336s-6.7852 11.336-15.152 11.336c-8.3672 0-15.152-5.0742-15.152-11.336s6.7852-11.336 15.152-11.336z" fill="#00d"/>
</svg>
