<?xml version="1.0" encoding="UTF-8"?>
<svg width="24px" height="24px" viewBox="0 0 24 24" version="1.1" xmlns="http://www.w3.org/2000/svg" xmlns:xlink="http://www.w3.org/1999/xlink">
    <title>Loader/Process/Success</title>
    <defs>
        <path d="M10.35,3.85 L4.85,9.35 C4.75,9.45 4.65,9.5 4.5,9.5 C4.35,9.5 4.25,9.45 4.15,9.35 L1.65,6.85 C1.45,6.65 1.45,6.35 1.65,6.15 C1.85,5.95 2.15,5.95 2.35,6.15 L4.5,8.3 L9.65,3.15 C9.85,2.95 10.15,2.95 10.35,3.15 C10.55,3.35 10.55,3.65 10.35,3.85 Z" id="path-1"></path>
    </defs>
    <g id="Page-1" stroke="none" stroke-width="1" fill="none" fill-rule="evenodd">
        <g id="Donate-Confirm" transform="translate(-1232.000000, -414.000000)">
            <g id="Group" transform="translate(1009.000000, 408.000000)">
                <g transform="translate(223.000000, 6.000000)">
                    <circle id="Surface" fill="#34BFA3" cx="12" cy="12" r="12"></circle>
                    <g transform="translate(6.000000, 6.000000)" id="feather-icon/alert-triangle">
                        <mask id="mask-2" fill="white">
                            <use xlink:href="#path-1"></use>
                        </mask>
                        <use id="Mask" fill="#000000" fill-rule="nonzero" xlink:href="#path-1"></use>
                        <g id="Group" mask="url(#mask-2)" fill="#FFFFFF">
                            <g id="Icon-Color">
                                <rect id="Shape" x="0" y="0" width="12" height="12"></rect>
                            </g>
                        </g>
                    </g>
                </g>
            </g>
        </g>
    </g>
</svg>